<svg width="53" height="52" viewBox="0 0 53 52" fill="none" xmlns="http://www.w3.org/2000/svg">
<path d="M44.861 46.0408L23.4877 46.0483C21.8929 46.0483 20.5881 44.7825 20.5881 43.2352L20.5859 42.4939M20.5878 28.0436L20.5878 6.86776C20.5878 5.32053 21.8925 4.05469 23.4873 4.05469L48.8872 4.05469C50.482 4.05469 51.7867 5.32053 51.7867 6.86776L51.7867 43.2352C51.7867 44.7825 50.482 46.0483 48.8872 46.0483L47.6535 46.0483" stroke="#4FA095" stroke-miterlimit="10" stroke-linecap="round" stroke-linejoin="round"/>
<path opacity="0.3" d="M20.5879 8.82813L20.5879 6.86776C20.5879 5.32053 21.8926 4.05469 23.4874 4.05469L48.8873 4.05469C50.4821 4.05469 51.7869 5.32053 51.7869 6.86776L51.7869 8.82813L20.5879 8.82813Z" fill="#4FA095"/>
<path d="M24.0564 14.1243L46.8759 14.1243M24.0564 23.4084L39.8828 23.4084M24.0564 19.1234L42.0912 19.1234M44.8615 26.5486L47.6547 26.5486M44.8615 44.7186L47.6547 44.7186M44.8615 42.806L47.6547 42.806M20.5879 8.82813L20.5879 6.86776C20.5879 5.32053 21.8926 4.05469 23.4874 4.05469L48.8873 4.05469C50.4821 4.05469 51.7869 5.32053 51.7869 6.86776L51.7869 8.82813L20.5879 8.82813ZM47.6547 47.7469L44.8615 47.7469L44.8615 26.0704L46.2583 23.4205L47.6547 26.0704L47.6547 47.7469Z" stroke="#4FA095" stroke-miterlimit="10" stroke-linecap="round" stroke-linejoin="round"/>
<path opacity="0.3" d="M44.8613 42.8047L47.6541 42.8047L47.6541 44.7172L44.8613 44.7172L44.8613 42.8047Z" fill="#4FA095"/>
<path d="M44.8613 26.5479L47.6545 26.5479M44.8613 44.7179L47.6545 44.7179M44.8613 42.8054L47.6545 42.8054M47.6545 47.7463L44.8613 47.7463L44.8613 26.0698L46.2581 23.4199L47.6545 26.0698L47.6545 47.7463Z" stroke="#4FA095" stroke-miterlimit="10" stroke-linecap="round" stroke-linejoin="round"/>
<path opacity="0.3" d="M47.6545 26.5479L44.8613 26.5479L44.8613 26.0698L46.2581 23.4199L47.6545 26.0698L47.6545 26.5479Z" fill="#4FA095"/>
<path d="M44.8613 26.5469L47.6545 26.5469M44.8613 44.7169L47.6545 44.7169M44.8613 42.8044L47.6545 42.8044" stroke="#4FA095" stroke-miterlimit="10" stroke-linecap="round" stroke-linejoin="round"/>
<path d="M14.5225 19.332L14.5225 21.9833M15.8887 20.6579L13.1563 20.6579" stroke="#4FA095" stroke-miterlimit="10" stroke-linecap="round" stroke-linejoin="round"/>
<path d="M10.1983 8.49219L10.1983 12.9207M12.4806 10.7064L7.91602 10.7064" stroke="#4FA095" stroke-miterlimit="10" stroke-linecap="round" stroke-linejoin="round"/>
<path d="M1.67383 28.0449L28.7793 28.0449L28.7793 42.4931L1.67383 42.4931L1.67383 28.0449Z" stroke="#4FA095" stroke-miterlimit="10" stroke-linecap="round" stroke-linejoin="round"/>
<path opacity="0.3" d="M4.50977 31.1816L11.5223 31.1816L11.5223 39.3231L4.50977 39.3231L4.50977 31.1816Z" fill="#4FA095"/>
<path d="M4.50977 31.1816L11.5223 31.1816L11.5223 39.3231L4.50977 39.3231L4.50977 31.1816Z" stroke="#4FA095" stroke-miterlimit="10" stroke-linecap="round" stroke-linejoin="round"/>
<path d="M14.8555 31.6211L26.2652 31.6211M14.8555 34.4777L22.5846 34.4777" stroke="#4FA095" stroke-miterlimit="10" stroke-linecap="round" stroke-linejoin="round"/>
<path d="M15.7428 38.9322C16.2016 38.9322 16.5735 38.5713 16.5735 38.1262C16.5735 37.6811 16.2016 37.3203 15.7428 37.3203C15.284 37.3203 14.9121 37.6811 14.9121 38.1262C14.9121 38.5713 15.284 38.9322 15.7428 38.9322Z" stroke="#4FA095" stroke-miterlimit="10" stroke-linecap="round" stroke-linejoin="round"/>
<path d="M19.5241 38.9322C19.9828 38.9322 20.3548 38.5713 20.3548 38.1262C20.3548 37.6811 19.9828 37.3203 19.5241 37.3203C19.0653 37.3203 18.6934 37.6811 18.6934 38.1262C18.6934 38.5713 19.0653 38.9322 19.5241 38.9322Z" stroke="#4FA095" stroke-miterlimit="10" stroke-linecap="round" stroke-linejoin="round"/>
<path d="M23.3073 38.9322C23.766 38.9322 24.138 38.5713 24.138 38.1262C24.138 37.6811 23.766 37.3203 23.3073 37.3203C22.8485 37.3203 22.4766 37.6811 22.4766 38.1262C22.4766 38.5713 22.8485 38.9322 23.3073 38.9322Z" stroke="#4FA095" stroke-miterlimit="10" stroke-linecap="round" stroke-linejoin="round"/>
</svg>
