<svg width="63" height="42" viewBox="0 0 63 42" fill="none" xmlns="http://www.w3.org/2000/svg">
<path d="M24.1441 0C23.2792 0 22.5678 0.7119 22.5678 1.575C22.5678 2.25435 23.0102 2.8329 23.6186 3.0513V5.46735L28.8729 10.7174V16.8H24.6695V11.3326L22.7853 9.45H20.3684C20.1477 8.84205 19.5697 8.4 18.8898 8.4C18.025 8.4 17.3136 9.11085 17.3136 9.975C17.3136 10.8391 18.025 11.55 18.8898 11.55C19.5697 11.55 20.1487 11.108 20.3673 10.5H22.3503L23.6186 11.7674V16.8H16.7881C15.9107 16.8 15.2119 17.5476 15.2119 18.4264V19.95H10.1752L8.90678 18.6826V17.7513C9.51522 17.5329 9.95763 16.9533 9.95763 16.275C9.95763 15.4108 9.24515 14.7 8.38136 14.7C7.51756 14.7 6.80509 15.4108 6.80509 16.275C6.80509 16.9543 7.24749 17.5329 7.85593 17.7513V19.1173L9.7401 21H15.2119V24.15H9.12431L5.97176 21H3.55481C3.33414 20.392 2.75617 19.95 2.07627 19.95C1.21247 19.95 0.5 20.6609 0.5 21.525C0.5 22.3881 1.21247 23.1 2.07627 23.1C2.75617 23.1 3.33519 22.6579 3.55376 22.05H5.53671L8.68925 25.2H15.2119V28.35H8.68925L5.53671 31.5H3.55376C3.33519 30.892 2.75512 30.45 2.07627 30.45C1.21247 30.45 0.5 31.1619 0.5 32.025C0.5 32.8881 1.21247 33.6 2.07627 33.6C2.75617 33.6 3.33519 33.1579 3.55376 32.55H5.97176L9.12431 29.4H15.2119V32.55H9.7401L7.85593 34.4326V35.7976C7.24749 36.0181 6.80509 36.5956 6.80509 37.275C6.80509 38.1381 7.51756 38.85 8.38136 38.85C9.24515 38.85 9.95763 38.1381 9.95763 37.275C9.95763 36.5956 9.51522 36.0171 8.90678 35.7987V34.8673L10.1752 33.6H15.2119V36.75H12.5847C12.4454 36.75 12.3118 36.8053 12.2132 36.9038C12.1147 37.0022 12.0593 37.1358 12.0593 37.275V38.6757C12.0593 40.4922 13.4633 42 15.2266 42H47.7818C49.5452 42 50.9491 40.4922 50.9491 38.6757V37.275C50.9491 37.1358 50.8937 37.0022 50.7952 36.9038C50.6967 36.8053 50.563 36.75 50.4237 36.75H47.7881V33.6H52.8249L54.0932 34.8673V35.7987C53.4848 36.0171 53.0424 36.5967 53.0424 37.275C53.0424 38.1381 53.7549 38.85 54.6186 38.85C55.4824 38.85 56.1949 38.1381 56.1949 37.275C56.1949 36.5956 55.7525 36.0171 55.1441 35.7987V34.4326L53.2599 32.55H47.7881V29.4H53.8757L57.0282 32.55H59.4452C59.6659 33.1579 60.2438 33.6 60.9237 33.6C61.7875 33.6 62.5 32.8881 62.5 32.025C62.5 31.1619 61.7875 30.45 60.9237 30.45C60.2438 30.45 59.6648 30.892 59.4462 31.5H57.4633L54.3108 28.35H47.7881V25.2H54.3108L57.4633 22.05H59.4462C59.6648 22.6579 60.2449 23.1 60.9237 23.1C61.7875 23.1 62.5 22.3881 62.5 21.525C62.5 20.6609 61.7875 19.95 60.9237 19.95C60.2438 19.95 59.6648 20.392 59.4462 21H57.0282L53.8757 24.15H47.7881V21H53.2599L55.1441 19.1173V17.7523C55.7525 17.5318 56.1949 16.9543 56.1949 16.275C56.1949 15.4108 55.4824 14.7 54.6186 14.7C53.7549 14.7 53.0424 15.4108 53.0424 16.275C53.0424 16.9543 53.4848 17.5329 54.0932 17.7513V18.6826L52.8249 19.95H47.7881V18.4264C47.7881 17.5476 47.0893 16.8 46.2119 16.8H39.3814V11.7674L40.6497 10.5H42.6327C42.8513 11.108 43.4313 11.55 44.1102 11.55C44.974 11.55 45.6864 10.8391 45.6864 9.975C45.6864 9.11085 44.974 8.4 44.1102 8.4C43.4303 8.4 42.8513 8.84205 42.6327 9.45H40.2147L38.3305 11.3326V16.8H35.178V10.7174L40.4322 5.46735V3.05235C41.0406 2.83185 41.4831 2.25435 41.4831 1.575C41.4831 0.7119 40.7706 0 39.9068 0C39.043 0 38.3305 0.7119 38.3305 1.575C38.3305 2.25435 38.7729 2.8329 39.3814 3.0513V5.03265L34.1271 10.2826V16.8H29.9237V10.2826L24.6695 5.03265V3.0513C25.2779 2.8329 25.7203 2.2533 25.7203 1.575C25.7203 0.7119 25.0089 0 24.1441 0ZM24.1441 1.05C24.4404 1.05 24.6695 1.2789 24.6695 1.575C24.6695 1.8711 24.4404 2.1 24.1441 2.1C24.0748 2.10099 24.006 2.08809 23.9418 2.06205C23.8776 2.03602 23.8193 1.99739 23.7703 1.94844C23.7213 1.89949 23.6827 1.84122 23.6566 1.77707C23.6306 1.71293 23.6177 1.64422 23.6186 1.575C23.6186 1.2789 23.8477 1.05 24.1441 1.05ZM39.9068 1.05C40.2031 1.05 40.4322 1.2789 40.4322 1.575C40.4322 1.8711 40.2031 2.1 39.9068 2.1C39.8375 2.10099 39.7687 2.08809 39.7045 2.06205C39.6404 2.03602 39.582 1.99739 39.533 1.94844C39.4841 1.89949 39.4454 1.84122 39.4193 1.77707C39.3933 1.71293 39.3804 1.64422 39.3814 1.575C39.3814 1.2789 39.6104 1.05 39.9068 1.05ZM18.8898 9.45C19.1862 9.45 19.4153 9.6789 19.4153 9.975C19.4153 10.2711 19.1862 10.5 18.8898 10.5C18.8206 10.501 18.7518 10.4881 18.6876 10.4621C18.6234 10.436 18.5651 10.3974 18.5161 10.3484C18.4671 10.2995 18.4284 10.2412 18.4024 10.1771C18.3763 10.1129 18.3634 10.0442 18.3644 9.975C18.3644 9.6789 18.5935 9.45 18.8898 9.45ZM44.1102 9.45C44.4065 9.45 44.6356 9.6789 44.6356 9.975C44.6356 10.2711 44.4065 10.5 44.1102 10.5C44.0409 10.501 43.9721 10.4881 43.9079 10.4621C43.8437 10.436 43.7854 10.3974 43.7364 10.3484C43.6874 10.2995 43.6488 10.2412 43.6227 10.1771C43.5967 10.1129 43.5838 10.0442 43.5847 9.975C43.5847 9.6789 43.8138 9.45 44.1102 9.45ZM8.38136 15.75C8.6777 15.75 8.90678 15.9789 8.90678 16.275C8.90678 16.5711 8.6777 16.8 8.38136 16.8C8.31208 16.801 8.24331 16.7881 8.17912 16.7621C8.11492 16.736 8.05661 16.6974 8.00762 16.6484C7.95863 16.5995 7.91996 16.5412 7.89391 16.4771C7.86786 16.4129 7.85494 16.3442 7.85593 16.275C7.85593 15.9789 8.08502 15.75 8.38136 15.75ZM54.6186 15.75C54.915 15.75 55.1441 15.9789 55.1441 16.275C55.1441 16.5711 54.915 16.8 54.6186 16.8C54.5494 16.801 54.4806 16.7881 54.4164 16.7621C54.3522 16.736 54.2939 16.6974 54.2449 16.6484C54.1959 16.5995 54.1573 16.5412 54.1312 16.4771C54.1051 16.4129 54.0922 16.3442 54.0932 16.275C54.0932 15.9789 54.3223 15.75 54.6186 15.75ZM16.7881 17.85H46.2119C46.4987 17.85 46.7373 18.0862 46.7373 18.4264V36.75H16.2627V18.4264C16.2627 18.0862 16.5013 17.85 16.7881 17.85ZM18.8898 19.95C18.7505 19.95 18.6168 20.0053 18.5183 20.1038C18.4198 20.2022 18.3644 20.3358 18.3644 20.475V34.125C18.3644 34.2642 18.4198 34.3978 18.5183 34.4962C18.6168 34.5947 18.7505 34.65 18.8898 34.65H27.428C27.1743 34.3423 26.9888 33.9845 26.8836 33.6H19.4153V21H26.6031C26.9856 20.601 27.4122 20.2471 27.8819 19.95H18.8898ZM31.5 19.95C28.5261 19.95 26.1049 22.2001 25.7834 25.0845L25.7203 25.6126V28.6409C25.7229 29.2646 25.9297 29.8704 26.3092 30.3656C26.6887 30.8609 27.22 31.2183 27.822 31.3834V32.865C27.822 33.8446 28.627 34.6489 29.6085 34.6489H33.3915C34.373 34.6489 35.178 33.8447 35.178 32.8639V31.3845C36.3843 31.0485 37.2797 29.9544 37.2797 28.644V25.6158L37.2177 25.0866C36.8951 22.2033 34.4729 19.9552 31.5 19.9552V19.95ZM34.9174 19.95C35.4218 20.2398 35.8778 20.5989 36.2908 21H43.5847V33.6H36.1216C36.0165 33.9906 35.8274 34.3455 35.5752 34.65H44.1102C44.2495 34.65 44.3832 34.5947 44.4817 34.4962C44.5802 34.3978 44.6356 34.2642 44.6356 34.125V20.475C44.6356 20.3358 44.5802 20.2022 44.4817 20.1038C44.3832 20.0053 44.2495 19.95 44.1102 19.95H34.9174ZM2.07627 21C2.37261 21 2.6017 21.2289 2.6017 21.525C2.6017 21.8211 2.37261 22.05 2.07627 22.05C2.007 22.051 1.93823 22.0381 1.87403 22.0121C1.80984 21.986 1.75152 21.9474 1.70253 21.8984C1.65354 21.8495 1.61488 21.7912 1.58882 21.7271C1.56277 21.6629 1.54986 21.5942 1.55085 21.525C1.55085 21.2289 1.77993 21 2.07627 21ZM31.5 21C33.9464 21 35.9094 22.8291 36.1731 25.2L36.2288 25.6756V28.644C36.2288 29.5774 35.5437 30.3187 34.642 30.4279H34.1271V32.865C34.1271 33.2808 33.8087 33.5989 33.3915 33.5989H33.0763V31.4989H32.0254V33.5989H30.9746V31.4989H29.9237V33.5989H29.6085C29.5113 33.601 29.4148 33.5833 29.3246 33.5471C29.2345 33.5108 29.1526 33.4568 29.0839 33.3881C29.0152 33.3195 28.9611 33.2377 28.9248 33.1476C28.8885 33.0575 28.8709 32.961 28.8729 32.8639V30.429H28.358C27.919 30.3797 27.5139 30.1696 27.2209 29.8394C26.9279 29.5092 26.7676 29.0822 26.7712 28.6409V25.6725L26.8269 25.2H26.829C27.0917 22.8291 29.0536 21 31.5 21ZM60.9237 21C61.2201 21 61.4492 21.2289 61.4492 21.525C61.4492 21.8211 61.2201 22.05 60.9237 22.05C60.8545 22.051 60.7857 22.0381 60.7215 22.0121C60.6573 21.986 60.599 21.9474 60.55 21.8984C60.501 21.8495 60.4623 21.7912 60.4363 21.7271C60.4102 21.6629 60.3973 21.5942 60.3983 21.525C60.3983 21.2289 60.6274 21 60.9237 21ZM28.8918 24.2865C28.7928 24.2843 28.6951 24.3102 28.6102 24.361C28.3405 24.5169 28.1229 24.749 27.9849 25.0282C27.8469 25.3073 27.7946 25.621 27.8346 25.9297C27.9177 26.5597 28.3758 27.0827 28.9906 27.2465C29.2919 27.3267 29.6103 27.3162 29.9057 27.2162C30.2011 27.1163 30.4604 26.9314 30.6509 26.6847C31.0376 26.1807 31.0818 25.4877 30.7634 24.9375C30.7305 24.8748 30.6853 24.8193 30.6305 24.7745C30.5756 24.7296 30.5122 24.6964 30.4442 24.6766C30.3761 24.6569 30.3048 24.6511 30.2344 24.6597C30.1641 24.6682 30.0962 24.6909 30.0348 24.7263C29.9735 24.7618 29.9199 24.8092 29.8774 24.8659C29.8349 24.9225 29.8043 24.9872 29.7875 25.0559C29.7706 25.1247 29.7678 25.1962 29.7793 25.2661C29.7908 25.3359 29.8164 25.4027 29.8544 25.4625C29.9078 25.5523 29.933 25.656 29.9267 25.7602C29.9205 25.8645 29.8831 25.9645 29.8194 26.0472C29.7557 26.13 29.6686 26.1918 29.5693 26.2246C29.4701 26.2574 29.3633 26.2596 29.2627 26.2311C29.1623 26.2043 29.0721 26.1483 29.0036 26.0703C28.935 25.9922 28.8911 25.8956 28.8775 25.7927C28.8639 25.6897 28.8812 25.585 28.9271 25.4919C28.973 25.3987 29.0456 25.3212 29.1356 25.2693C29.2355 25.2128 29.3142 25.1252 29.3595 25.0199C29.4049 24.9145 29.4145 24.7972 29.3869 24.6859C29.3592 24.5746 29.2959 24.4754 29.2065 24.4034C29.1171 24.3315 29.0065 24.2898 28.8918 24.2865ZM34.103 24.2865C33.9883 24.2904 33.8781 24.3318 33.7892 24.4042C33.7002 24.4766 33.6375 24.5761 33.6104 24.6875C33.5834 24.7988 33.5936 24.916 33.6394 25.0211C33.6853 25.1261 33.7643 25.2133 33.8644 25.2693C33.9308 25.3084 33.9877 25.3617 34.0312 25.4253C34.0746 25.489 34.1034 25.5614 34.1157 25.6374C34.1279 25.7134 34.1232 25.7912 34.1019 25.8653C34.0806 25.9393 34.0433 26.0077 33.9925 26.0656C33.9417 26.1236 33.8788 26.1697 33.8082 26.2005C33.7376 26.2314 33.661 26.2464 33.584 26.2443C33.5069 26.2423 33.4313 26.2233 33.3624 26.1887C33.2936 26.1541 33.2332 26.1048 33.1856 26.0442C33.1219 25.9622 33.084 25.863 33.0769 25.7594C33.0698 25.6558 33.0937 25.5525 33.1456 25.4625C33.1836 25.4027 33.2092 25.3359 33.2207 25.2661C33.2322 25.1962 33.2294 25.1247 33.2126 25.0559C33.1957 24.9872 33.1651 24.9225 33.1226 24.8659C33.0801 24.8092 33.0265 24.7618 32.9652 24.7263C32.9038 24.6909 32.8359 24.6682 32.7656 24.6597C32.6952 24.6511 32.6239 24.6569 32.5558 24.6766C32.4878 24.6964 32.4244 24.7296 32.3696 24.7745C32.3147 24.8193 32.2695 24.8748 32.2366 24.9375C32.0814 25.2077 32.0095 25.5177 32.0301 25.8286C32.0507 26.1394 32.1627 26.4373 32.3522 26.6847C32.739 27.1887 33.3957 27.4113 34.0105 27.2465C34.3105 27.1645 34.5797 26.9958 34.7842 26.7615C34.9887 26.5273 35.1194 26.2379 35.1599 25.9297C35.2004 25.6215 35.1489 25.3083 35.0119 25.0292C34.875 24.7501 34.6585 24.5177 34.3898 24.361C34.3032 24.3096 34.2037 24.283 34.103 24.2865ZM30.3956 28.35C30.2562 28.3571 30.1254 28.4192 30.0319 28.5227C29.9384 28.6262 29.8898 28.7625 29.8969 28.9018C29.904 29.041 29.9662 29.1717 30.0698 29.2652C30.1733 29.3586 30.3098 29.4071 30.4492 29.4H32.5508C32.6902 29.4 32.8238 29.3447 32.9224 29.2462C33.0209 29.1478 33.0763 29.0142 33.0763 28.875C33.0763 28.7358 33.0209 28.6022 32.9224 28.5038C32.8238 28.4053 32.6902 28.35 32.5508 28.35H30.4492C30.4317 28.3491 30.4141 28.3491 30.3966 28.35H30.3956ZM2.07627 31.5C2.37261 31.5 2.6017 31.7289 2.6017 32.025C2.6017 32.3211 2.37261 32.55 2.07627 32.55C2.007 32.551 1.93823 32.5381 1.87403 32.5121C1.80984 32.486 1.75152 32.4474 1.70253 32.3984C1.65354 32.3495 1.61488 32.2912 1.58882 32.2271C1.56277 32.1629 1.54986 32.0942 1.55085 32.025C1.55085 31.7289 1.77993 31.5 2.07627 31.5ZM60.9237 31.5C61.2201 31.5 61.4492 31.7289 61.4492 32.025C61.4492 32.3211 61.2201 32.55 60.9237 32.55C60.8545 32.551 60.7857 32.5381 60.7215 32.5121C60.6573 32.486 60.599 32.4474 60.55 32.3984C60.501 32.3495 60.4623 32.2912 60.4363 32.2271C60.4102 32.1629 60.3973 32.0942 60.3983 32.025C60.3983 31.7289 60.6274 31.5 60.9237 31.5ZM8.38136 36.75C8.6777 36.75 8.90678 36.9789 8.90678 37.275C8.90678 37.5711 8.6777 37.8 8.38136 37.8C8.31208 37.801 8.24331 37.7881 8.17912 37.7621C8.11492 37.736 8.05661 37.6974 8.00762 37.6484C7.95863 37.5995 7.91996 37.5412 7.89391 37.4771C7.86786 37.4129 7.85494 37.3442 7.85593 37.275C7.85593 36.9789 8.08502 36.75 8.38136 36.75ZM54.6186 36.75C54.915 36.75 55.1441 36.9789 55.1441 37.275C55.1441 37.5711 54.915 37.8 54.6186 37.8C54.5494 37.801 54.4806 37.7881 54.4164 37.7621C54.3522 37.736 54.2939 37.6974 54.2449 37.6484C54.1959 37.5995 54.1573 37.5412 54.1312 37.4771C54.1051 37.4129 54.0922 37.3442 54.0932 37.275C54.0932 36.9789 54.3223 36.75 54.6186 36.75ZM13.1102 37.8H25.7634C25.8433 38.2861 26.0324 38.7292 26.3109 39.0862C26.6892 39.5682 27.2525 39.9 27.8872 39.9H35.1118C35.7475 39.9 36.3118 39.5682 36.688 39.0862C36.9676 38.7292 37.1567 38.2861 37.2366 37.8H49.8982V38.6757C49.8982 39.9609 48.9462 40.95 47.7818 40.95H15.2266C14.0622 40.95 13.1102 39.9609 13.1102 38.6757V37.8ZM26.9372 37.8H36.0628C35.9966 38.0215 35.9808 38.2872 35.861 38.4405C35.6445 38.7166 35.3871 38.85 35.1128 38.85H27.8872C27.614 38.85 27.3555 38.7166 27.139 38.4405C27.0192 38.2872 27.0024 38.0215 26.9372 37.8Z" fill="#FFBE55"/>
</svg>
