<svg width="55" height="39" viewBox="0 0 55 39" fill="none" xmlns="http://www.w3.org/2000/svg">
<path d="M44.2148 0.000907238C40.4483 0.000907238 37.4 3.06613 37.4 6.85595V9.98012H16.7V3.94217C16.7 3.2729 16.1492 2.72152 15.485 2.72152H1.715C1.0508 2.72152 0.5 3.2729 0.5 3.94217V12.3833C0.5 13.0526 1.0508 13.604 1.715 13.604H6.8V15.7823C5.93065 16.1645 5.19087 16.794 4.67132 17.5936C4.15178 18.3933 3.87504 19.3282 3.87504 20.284C3.87504 21.2397 4.15178 22.1747 4.67132 22.9743C5.19087 23.774 5.93065 24.4035 6.8 24.7857V33.5851H4.55C4.43065 33.5851 4.31619 33.6328 4.2318 33.7179C4.14741 33.8029 4.1 33.9182 4.1 34.0385C4.09988 34.6902 4.22722 35.3356 4.47474 35.9377C4.72226 36.5399 5.08511 37.087 5.54255 37.5477C5.99999 38.0085 6.54306 38.3739 7.14071 38.6231C7.73837 38.8723 8.3789 39.0004 9.0257 39H44.1743C44.821 39.0004 45.4615 38.8723 46.0591 38.6232C46.6567 38.374 47.1997 38.0087 47.6571 37.548C48.1146 37.0874 48.4774 36.5404 48.725 35.9384C48.9726 35.3364 49.1 34.6911 49.1 34.0394C49.1 33.9192 49.0526 33.8038 48.9682 33.7188C48.8838 33.6337 48.7693 33.586 48.65 33.586H46.4V13.711H47.6852C51.4517 13.711 54.5 10.6458 54.5 6.85685C54.5 3.06613 51.4517 0.00181361 47.6852 0.00181361L44.2148 0.000907238ZM44.2148 0.907778H47.6852C48.462 0.903945 49.2319 1.0551 49.9505 1.35252C50.6691 1.64994 51.3221 2.08774 51.8719 2.64069C52.4218 3.19364 52.8576 3.85079 53.1541 4.57425C53.4507 5.29772 53.6023 6.07319 53.6 6.85595C53.6021 7.63863 53.4505 8.414 53.1539 9.13736C52.8572 9.86072 52.4214 10.5178 51.8716 11.0706C51.3218 11.6235 50.6688 12.0612 49.9503 12.3586C49.2318 12.6559 48.4619 12.807 47.6852 12.8032H45.3722C44.1059 12.8032 43.2464 13.0907 42.1844 14.1581L38.3 17.9969V6.85504C38.2979 6.07236 38.4495 5.29699 38.7461 4.57363C39.0428 3.85027 39.4786 3.19322 40.0284 2.64037C40.5782 2.08752 41.2312 1.64979 41.9497 1.35243C42.6682 1.05507 43.4381 0.903946 44.2148 0.907778ZM23.891 1.16442C23.5491 1.1647 23.215 1.26699 22.9307 1.45841C22.6465 1.64983 22.4249 1.92178 22.2938 2.23997C22.1628 2.55816 22.1282 2.90833 22.1945 3.24629C22.2607 3.58425 22.4248 3.89487 22.6661 4.13896L24.4841 5.96177C24.5684 6.04622 24.6825 6.09363 24.8013 6.09363C24.9202 6.09363 25.0343 6.04622 25.1186 5.96177L25.5713 5.5038L26.9339 4.13896C27.6089 3.46243 27.6089 2.35061 26.9339 1.67499C26.3471 1.08553 25.4723 1.1082 24.8018 1.54349C24.5147 1.35668 24.2195 1.16442 23.891 1.16442ZM45.5999 1.58793C45.4806 1.58793 45.3661 1.6357 45.2817 1.72074C45.1973 1.80578 45.1499 1.92111 45.1499 2.04137V3.43523C45.1499 3.43825 45.1499 3.44127 45.1499 3.4443C45.1499 3.51775 45.0905 3.68371 44.9321 3.89773C44.7746 4.11175 44.5397 4.36024 44.2931 4.62232C43.9376 4.99867 43.5299 5.40132 43.3238 5.8992H42.8297V4.52438C42.8297 4.40412 42.7823 4.28879 42.6979 4.20375C42.6135 4.11872 42.4991 4.07095 42.3797 4.07095H40.325C40.2057 4.07095 40.0912 4.11872 40.0068 4.20375C39.9224 4.28879 39.875 4.40412 39.875 4.52438V11.5635C39.875 11.6838 39.9224 11.7991 40.0068 11.8841C40.0912 11.9692 40.2057 12.017 40.325 12.017H42.3797C42.4991 12.017 42.6135 11.9692 42.6979 11.8841C42.7823 11.7991 42.8297 11.6838 42.8297 11.5635V10.9378H43.2149C43.4201 11.2543 43.7549 11.4783 44.1536 11.4783H49.3304C49.9442 11.4783 50.3357 10.8997 50.3357 10.3148C50.3357 10.1388 50.2898 9.97014 50.2232 9.81053C50.504 9.59288 50.693 9.25462 50.693 8.87646C50.693 8.68783 50.6363 8.51189 50.558 8.34866C50.8478 8.13645 51.0494 7.80725 51.0494 7.42274C51.0494 7.14796 50.9396 6.90129 50.7794 6.69996C50.9387 6.50045 51.0494 6.25741 51.0494 5.98354C51.047 5.67594 50.9245 5.38166 50.7084 5.1644C50.4923 4.94715 50.2 4.8244 49.8947 4.82274H48.0911C47.9615 4.8235 47.833 4.84682 47.7113 4.89166C47.6528 4.69367 47.575 4.502 47.4791 4.31943V3.33275C47.4791 2.35333 46.6331 1.58975 45.6404 1.58975H45.5999V1.58793ZM25.709 2.06585C25.9214 2.06585 26.1338 2.14928 26.2994 2.31615C26.378 2.39254 26.4405 2.4841 26.4832 2.58538C26.5259 2.68666 26.548 2.79557 26.548 2.90562C26.548 3.01566 26.5259 3.12457 26.4832 3.22585C26.4405 3.32713 26.378 3.4187 26.2994 3.49508L24.9368 4.86083L24.8 4.99958L23.3006 3.49599C23.2218 3.41959 23.1592 3.32797 23.1164 3.2266C23.0736 3.12524 23.0516 3.01622 23.0516 2.90607C23.0516 2.79592 23.0736 2.6869 23.1164 2.58553C23.1592 2.48417 23.2218 2.39255 23.3006 2.31615C23.378 2.23791 23.47 2.17597 23.5714 2.13394C23.6727 2.0919 23.7814 2.0706 23.891 2.07129C24.1052 2.07129 24.3176 2.15019 24.4832 2.31615C24.5676 2.40088 24.6818 2.44846 24.8009 2.44846C24.92 2.44846 25.0343 2.40088 25.1186 2.31615C25.1958 2.23729 25.2877 2.17459 25.389 2.13163C25.4903 2.08868 25.5991 2.06632 25.709 2.06585ZM46.0499 2.64716C46.3505 2.78954 46.5791 3.01897 46.5791 3.33275V4.38472C46.5788 4.4133 46.5812 4.44185 46.5863 4.46997L46.5935 4.49808C46.6024 4.54774 46.6194 4.59555 46.6439 4.63955C46.9715 5.21723 47.03 6.04067 46.778 6.69815C46.526 7.35563 46.0571 7.69843 45.6017 7.69843H43.637C43.5177 7.69843 43.4032 7.7462 43.3188 7.83124C43.2344 7.91628 43.187 8.03161 43.187 8.15187C43.187 8.27212 43.2344 8.38746 43.3188 8.47249C43.4032 8.55753 43.5177 8.6053 43.637 8.6053H45.6017C46.0634 8.6053 46.4891 8.42756 46.8437 8.13101L46.8446 8.13463C46.6835 8.3414 46.5791 8.59986 46.5791 8.87646C46.5791 9.13582 46.6754 9.37342 46.8185 9.57475C46.67 9.78514 46.5791 10.0463 46.5791 10.3148C46.5791 10.4027 46.6043 10.4871 46.6214 10.5714H44.1536C44.0141 10.5714 43.9088 10.468 43.9088 10.3148C43.9098 10.2541 43.8986 10.1938 43.8761 10.1375C43.8535 10.0812 43.8199 10.0301 43.7774 9.98714C43.7348 9.94418 43.6841 9.91026 43.6283 9.8874C43.5725 9.86454 43.5127 9.8532 43.4525 9.85406C43.3845 9.85502 43.3175 9.87152 43.2567 9.9023C43.1959 9.93309 43.1429 9.97737 43.1015 10.0318H42.8297V6.80607H43.2743C43.3306 6.88335 43.4098 6.94065 43.5005 6.96975C43.5911 6.99884 43.6886 6.99823 43.7789 6.968C43.8692 6.93778 43.9477 6.87949 44.003 6.80151C44.0584 6.72353 44.0878 6.62988 44.087 6.53401C44.087 6.27102 44.4569 5.76498 44.9447 5.24716C45.1877 4.9887 45.4442 4.7248 45.6548 4.44004C45.788 4.25867 45.8339 4.0256 45.9068 3.80705C45.9516 3.76519 45.9875 3.71457 46.0122 3.65829C46.037 3.602 46.0501 3.54123 46.0508 3.47966L46.0499 2.64716ZM1.715 3.62839H15.485C15.6686 3.62839 15.8 3.7608 15.8 3.94217V14.4419L13.8713 12.8032C13.7901 12.7346 13.6875 12.697 13.5815 12.6971H1.715C1.67347 12.6989 1.63203 12.692 1.59326 12.6769C1.55449 12.6618 1.51922 12.6388 1.48966 12.6094C1.4601 12.5799 1.43688 12.5446 1.42146 12.5058C1.40603 12.4669 1.39873 12.4252 1.4 12.3833V3.94217C1.4 3.7608 1.5314 3.62839 1.715 3.62839ZM14.6768 4.30129C14.5984 4.30161 14.5215 4.32256 14.4536 4.36205L8.6 7.42455L2.7482 4.36205C2.68211 4.32502 2.60782 4.30537 2.5322 4.30492V4.30673C2.43095 4.30694 2.33272 4.34156 2.2534 4.40498C2.17409 4.4684 2.11832 4.55692 2.09511 4.65623C2.0719 4.75555 2.08261 4.85984 2.12551 4.95226C2.1684 5.04468 2.24098 5.11982 2.3315 5.16554L8.393 8.33777C8.45697 8.37117 8.52796 8.3886 8.6 8.3886C8.67204 8.3886 8.74303 8.37117 8.807 8.33777L14.8685 5.16554C14.9614 5.12182 15.0366 5.04747 15.0819 4.95478C15.1271 4.86209 15.1396 4.75662 15.1172 4.65582C15.0948 4.55502 15.039 4.46493 14.9589 4.40047C14.8788 4.336 14.7793 4.30101 14.6768 4.30129ZM40.775 4.97782H41.9297V11.1101H40.775V4.97782ZM48.0911 5.72871H49.8947C49.9285 5.72703 49.9623 5.73249 49.9939 5.74473C50.0255 5.75698 50.0542 5.77574 50.0782 5.79982C50.1022 5.8239 50.1209 5.85276 50.1331 5.88455C50.1454 5.91634 50.1509 5.95037 50.1494 5.98444C50.1508 6.01852 50.1452 6.05252 50.1329 6.0843C50.1206 6.11607 50.1018 6.14493 50.0779 6.16905C50.054 6.19317 50.0253 6.21202 49.9938 6.22442C49.9623 6.23682 49.9285 6.2425 49.8947 6.24109H48.0911C48.0573 6.2425 48.0235 6.23682 47.992 6.22442C47.9605 6.21202 47.9318 6.19317 47.9079 6.16905C47.884 6.14493 47.8652 6.11607 47.8529 6.0843C47.8406 6.05252 47.835 6.01852 47.8364 5.98444C47.8349 5.95037 47.8404 5.91634 47.8527 5.88455C47.8649 5.85276 47.8836 5.8239 47.9076 5.79982C47.9316 5.77574 47.9603 5.75698 47.9919 5.74473C48.0235 5.73249 48.0573 5.72703 48.0911 5.72871ZM47.7239 7.16519H49.9055C50.045 7.16519 50.1494 7.26948 50.1494 7.42274C50.1494 7.576 50.045 7.67666 49.9055 7.67666H47.723C47.5835 7.67666 47.4782 7.576 47.4782 7.42274C47.4782 7.26857 47.5844 7.16519 47.7239 7.16519ZM47.6555 8.62163H49.6184C49.6922 8.62163 49.793 8.69962 49.793 8.87646C49.793 9.0533 49.6922 9.1331 49.6184 9.1331H47.6555C47.5808 9.1331 47.4791 9.0542 47.4791 8.87646C47.4791 8.69962 47.5808 8.62163 47.6555 8.62163ZM47.5844 10.0581H49.3304C49.3304 10.0581 49.4357 10.1134 49.4357 10.3148C49.4357 10.5161 49.3304 10.5714 49.3304 10.5714H47.5844C47.5844 10.5714 47.4791 10.517 47.4791 10.3148C47.4791 10.1134 47.5844 10.0581 47.5844 10.0581ZM16.7 10.887H37.4V12.7152H16.7V10.887ZM7.7 13.604H9.5V15.3751H8.744C8.3849 15.3751 8.0366 15.4159 7.7 15.4903V13.604ZM10.4 13.604H13.4168L15.9602 15.765C16.0258 15.8207 16.1058 15.8563 16.1908 15.8677C16.2759 15.879 16.3623 15.8657 16.4401 15.8292C16.5178 15.7927 16.5836 15.7346 16.6296 15.6617C16.6757 15.5888 16.7001 15.5041 16.7 15.4177V13.6221H37.4V19.0751C37.3998 19.1645 37.4259 19.2519 37.4749 19.3264C37.5239 19.4009 37.5936 19.4592 37.6753 19.4939C37.7571 19.5285 37.8471 19.5381 37.9343 19.5214C38.0214 19.5047 38.1017 19.4623 38.165 19.3998L42.8 14.8201V30.8527H36.05V30.3811C36.05 29.8868 35.6405 29.4742 35.15 29.4742H33.0386C32.8954 28.9533 32.6909 28.4516 32.4293 27.9797L33.9179 26.4788C34.0847 26.3077 34.1781 26.0775 34.1781 25.8377C34.1781 25.5978 34.0847 25.3676 33.9179 25.1965L32.6453 23.9142C32.4754 23.7464 32.2469 23.6524 32.009 23.6524C31.7711 23.6524 31.5426 23.7464 31.3727 23.9142L29.8814 25.416C29.4141 25.1499 28.9167 24.9413 28.4 24.7948V22.6727C28.4 22.1784 27.9905 21.7658 27.5 21.7658H25.7C25.2095 21.7658 24.8 22.1784 24.8 22.6727V24.8002C24.283 24.9448 23.7851 25.1512 23.3168 25.4151L21.8273 23.9142C21.6574 23.7464 21.4289 23.6524 21.191 23.6524C20.9531 23.6524 20.7246 23.7464 20.5547 23.9142L19.283 25.1974C19.1162 25.3685 19.0228 25.5988 19.0228 25.8386C19.0228 26.0784 19.1162 26.3086 19.283 26.4797L20.7734 27.9824C20.5101 28.4535 20.3038 28.9546 20.1587 29.4751H18.05C17.5595 29.4751 17.15 29.8878 17.15 30.382V30.8536H10.4V25.1974C11.1506 25.2001 11.381 25.2654 12.0263 25.9148H12.0299L15.2609 29.1142C15.3239 29.1761 15.4036 29.2181 15.4901 29.2348C15.5766 29.2516 15.666 29.2424 15.7474 29.2084C15.8287 29.1744 15.8984 29.1171 15.9477 29.0436C15.9971 28.9702 16.0239 28.8837 16.025 28.795V20.2849C16.0254 19.6403 15.8997 19.002 15.6552 18.4064C15.4106 17.8108 15.0521 17.2696 14.5999 16.8136C14.1478 16.3577 13.6109 15.996 13.02 15.7491C12.4291 15.5023 11.7957 15.3752 11.156 15.3751H10.4V13.604ZM45.3713 13.7128H45.5V33.5851H7.7V25.0786C8.0366 25.1521 8.3849 25.1947 8.744 25.1947H9.5V31.3061C9.5 31.4264 9.54741 31.5417 9.6318 31.6267C9.71619 31.7118 9.83065 31.7595 9.95 31.7595H43.25C43.3693 31.7595 43.4838 31.7118 43.5682 31.6267C43.6526 31.5417 43.7 31.4264 43.7 31.3061V14.0792C44.177 13.7844 44.6198 13.711 45.3713 13.711V13.7128ZM8.744 16.2792V16.282H11.156C13.3628 16.282 15.125 18.0594 15.125 20.2849V27.7122L12.6626 25.2709H12.6608C11.9093 24.5145 11.2469 24.2842 10.3523 24.2842H8.744C8.22185 24.2865 7.70442 24.1845 7.22162 23.9841C6.73882 23.7837 6.30022 23.4888 5.93116 23.1166C5.56211 22.7444 5.26992 22.3022 5.07147 21.8155C4.87302 21.3289 4.77226 20.8074 4.775 20.2813C4.77226 19.7551 4.87302 19.2337 5.07147 18.747C5.26992 18.2603 5.56211 17.8181 5.93116 17.4459C6.30022 17.0737 6.73882 16.7789 7.22162 16.5785C7.70442 16.3781 8.22185 16.277 8.744 16.2792ZM11.1596 17.5153C11.0409 17.5117 10.9221 17.5224 10.8059 17.5471V17.5489C10.547 17.6018 10.3035 17.7139 10.0944 17.8767C9.88532 18.0394 9.71612 18.2484 9.5999 18.4875C9.5198 18.6543 9.5243 18.8475 9.5 19.0325C9.1958 18.9763 8.888 18.9146 8.5982 18.7695C8.23079 18.588 7.90094 18.3378 7.6262 18.0322L7.5065 17.9007C7.45741 17.8475 7.39633 17.8069 7.32843 17.7825C7.26053 17.758 7.18778 17.7503 7.11633 17.7601C7.04487 17.7699 6.97679 17.7968 6.91782 17.8387C6.85885 17.8805 6.81073 17.936 6.7775 18.0005L6.7451 18.0585C6.5453 18.4485 6.5201 18.8566 6.6281 19.2719C6.6461 19.3445 6.7181 19.3853 6.7442 19.4542C6.7406 19.4542 6.7316 19.4633 6.7316 19.4633L6.6686 19.5249C6.6686 19.5249 6.6344 19.5694 6.6227 19.5884C6.60302 19.6219 6.58789 19.6579 6.5777 19.6954C6.5453 19.8106 6.5597 19.8315 6.5597 19.8442C6.5597 20.1461 6.6236 20.3266 6.7397 20.5633C6.818 20.722 7.0043 20.7755 7.1231 20.9016C7.11678 20.9096 7.10986 20.9172 7.1024 20.9242L7.0394 21.1582C7.0394 21.3432 7.0691 21.3305 7.0826 21.3659C7.12941 21.4655 7.18169 21.5624 7.2392 21.6561C7.3535 21.8411 7.5866 21.8801 7.7594 22.0052C7.5164 22.0868 7.2338 22.1685 7.0196 22.163L6.8189 22.154C6.71597 22.1496 6.61469 22.181 6.53196 22.2429C6.44924 22.3048 6.39008 22.3933 6.36438 22.4939C6.33868 22.5944 6.34798 22.7008 6.39074 22.7952C6.43349 22.8896 6.50711 22.9664 6.5993 23.0128L6.8567 23.1443C7.0214 23.2259 7.2284 23.3175 7.3832 23.3728C7.6406 23.4626 8.0123 23.5496 8.2742 23.5796C8.282 23.5798 8.2898 23.5798 8.2976 23.5796C8.30989 23.5801 8.32221 23.5801 8.3345 23.5796C8.4092 23.5796 8.5487 23.5904 8.7269 23.5904C10.1723 23.604 11.4494 22.9239 12.2207 21.7223C12.6572 21.0421 12.9047 20.226 12.9083 19.4442L12.8471 19.4914C13.028 19.3508 13.2206 19.1513 13.3709 18.9618L13.4519 18.8593C13.4909 18.8099 13.5192 18.7528 13.5351 18.6918C13.551 18.6307 13.554 18.567 13.544 18.5046C13.534 18.4423 13.5112 18.3828 13.477 18.3299C13.4429 18.2769 13.3982 18.2318 13.3457 18.1973C13.3502 18.1837 13.3538 18.1791 13.3583 18.1456C13.3605 18.126 13.3623 18.1063 13.3637 18.0866L13.3511 17.9715L13.316 17.8762L13.2305 17.7556L13.0775 17.6559L12.9137 17.625L12.8291 17.6341C12.8291 17.6341 12.803 17.6432 12.794 17.6432C12.776 17.6523 12.767 17.6513 12.7589 17.6522C12.7427 17.6613 12.7319 17.664 12.7238 17.6677C12.7058 17.6767 12.6914 17.6813 12.6743 17.6885C12.6352 17.7067 12.5965 17.7257 12.5582 17.7457C12.4365 17.7997 12.3114 17.8458 12.1838 17.8835C11.8857 17.6621 11.5295 17.5341 11.1596 17.5153ZM10.9904 18.4186V18.4222C11.2334 18.3714 11.5025 18.4312 11.7239 18.6117C11.7833 18.6607 11.8247 18.7115 11.9543 18.7641H11.957C11.957 18.7731 11.9534 18.7731 11.9543 18.7777C11.9561 18.843 12.0173 18.9282 12.0668 19.0098C12.0325 19.0746 12.0142 19.1468 12.0137 19.2202L12.0119 19.4333C12.0119 20.0174 11.8067 20.7012 11.4656 21.2326C10.8491 22.192 9.905 22.699 8.7314 22.6872H8.7269C8.6405 22.6872 8.6045 22.6872 8.5334 22.6781C8.6027 22.6391 8.6756 22.6029 8.7368 22.563C8.7935 22.5258 8.8448 22.4913 8.8934 22.4514C8.92286 22.4281 8.95053 22.4027 8.9762 22.3752C8.9924 22.3571 9.0122 22.3362 9.0374 22.2954C9.08374 22.2206 9.10866 22.1343 9.1094 22.046L9.0995 21.9463C9.0995 21.9463 9.0833 21.8873 9.0725 21.8619C9.05464 21.8192 9.03036 21.7794 9.0005 21.7441C8.96859 21.7042 8.92988 21.6704 8.8862 21.6443C8.8268 21.6053 8.7899 21.598 8.7566 21.5872C8.69398 21.5654 8.62993 21.5481 8.5649 21.5355H8.5613C8.4596 21.5173 8.4002 21.4294 8.3066 21.3713C8.3669 21.3133 8.438 21.2861 8.456 21.1564C8.46602 21.08 8.45768 21.0024 8.43168 20.9299C8.40568 20.8575 8.36278 20.7924 8.3066 20.7401C8.1815 20.6232 8.123 20.6204 8.0456 20.5932C7.9052 20.5434 7.8458 20.4282 7.7576 20.3393C7.8566 20.2894 8.0267 20.1081 8.0213 19.9076C8.0213 19.9076 8.0123 19.8124 8.0024 19.7825C7.9934 19.7517 7.9826 19.7326 7.9745 19.7145C7.9565 19.6782 7.9412 19.6573 7.9286 19.6401C7.90957 19.6131 7.88851 19.5877 7.8656 19.5639C7.82936 19.5267 7.79024 19.4924 7.7486 19.4615C7.6919 19.4188 7.547 19.2075 7.5029 19.0525C7.7279 19.2311 7.9304 19.4424 8.1959 19.5766C8.6693 19.817 9.1778 19.9666 9.6899 20.0119L9.8537 20.0283C9.91846 20.0342 9.98372 20.0259 10.045 20.0039C10.1063 19.982 10.1621 19.9469 10.2086 19.9011C10.2551 19.8554 10.2913 19.8 10.3145 19.7388C10.3378 19.6776 10.3476 19.6121 10.3433 19.5467L10.3316 19.339C10.3132 19.181 10.3407 19.021 10.4108 18.8783C10.4656 18.7618 10.5465 18.6597 10.647 18.5799C10.7476 18.5001 10.8651 18.4449 10.9904 18.4186ZM7.691 21.4049C7.7153 21.414 7.7225 21.4448 7.7477 21.4539C7.7765 21.4647 7.7855 21.4956 7.6937 21.4085H7.691V21.4049ZM25.7 22.6727H27.5V25.0904C27.5001 25.1937 27.5352 25.294 27.5995 25.3744C27.6638 25.4549 27.7535 25.5108 27.8537 25.533C28.5273 25.6827 29.1693 25.9514 29.75 26.3265C29.8362 26.3824 29.9388 26.4069 30.0408 26.396C30.1428 26.3851 30.238 26.3395 30.3107 26.2666L32.009 24.5554L33.2816 25.8377L31.5869 27.5453C31.5148 27.6182 31.4694 27.7137 31.4583 27.8161C31.4471 27.9184 31.4709 28.0216 31.5257 28.1085C31.8947 28.6952 32.1602 29.3436 32.306 30.0238C32.3278 30.1249 32.3832 30.2155 32.4631 30.2805C32.543 30.3455 32.6425 30.381 32.7452 30.3811H35.15V30.8527H30.6059C30.3863 28.8104 28.6835 27.207 26.6 27.207C24.5165 27.207 22.8137 28.8104 22.5941 30.8527H18.05V30.3811H20.4494C20.5518 30.3811 20.6512 30.3458 20.731 30.2812C20.8109 30.2165 20.8665 30.1264 20.8886 30.0256C21.0371 29.3465 21.3037 28.6993 21.6761 28.1139C21.7316 28.027 21.7559 27.9236 21.7451 27.8209C21.7343 27.7181 21.689 27.6222 21.6167 27.5489L19.9184 25.8377L21.191 24.5554L22.8857 26.263C22.9583 26.3354 23.0532 26.3808 23.1547 26.3917C23.2563 26.4025 23.3585 26.3783 23.4446 26.3228C24.0269 25.9499 24.6702 25.6838 25.3445 25.5366C25.4447 25.5149 25.5346 25.4594 25.5992 25.3792C25.6639 25.2991 25.6994 25.1991 25.7 25.0958V22.6727ZM49.7084 23.8362C49.3665 23.8365 49.0324 23.9388 48.7481 24.1302C48.4639 24.3216 48.2423 24.5936 48.1112 24.9118C47.9802 25.2299 47.9456 25.5801 48.0119 25.9181C48.0781 26.256 48.2422 26.5667 48.4835 26.8107L50.3006 28.6336C50.3849 28.718 50.499 28.7654 50.6179 28.7654C50.7367 28.7654 50.8508 28.718 50.9351 28.6336L52.7513 26.8107C53.4254 26.1342 53.4254 25.0224 52.7513 24.3468C52.1645 23.7573 51.2897 23.78 50.6183 24.2153C50.3321 24.0285 50.0369 23.8362 49.7084 23.8362ZM51.5264 24.7395C51.7379 24.7395 51.9503 24.8229 52.1168 24.9897C52.1956 25.0659 52.2583 25.1574 52.3012 25.2586C52.344 25.3598 52.3661 25.4687 52.3661 25.5788C52.3661 25.6888 52.344 25.7977 52.3012 25.8989C52.2583 26.0001 52.1956 26.0916 52.1168 26.1678L50.6174 27.6714L49.118 26.1678C49.039 26.0916 48.9762 26.0001 48.9333 25.8988C48.8904 25.7975 48.8682 25.6885 48.8682 25.5783C48.8682 25.4682 48.8904 25.3591 48.9333 25.2578C48.9762 25.1565 49.039 25.065 49.118 24.9888C49.1954 24.9107 49.2875 24.8488 49.3888 24.8068C49.4902 24.7647 49.5988 24.7434 49.7084 24.744C49.9226 24.744 50.135 24.8229 50.3006 24.9888C50.3849 25.0733 50.499 25.1207 50.6179 25.1207C50.7367 25.1207 50.8508 25.0733 50.9351 24.9888C51.0124 24.9101 51.1043 24.8476 51.2056 24.8048C51.3069 24.762 51.4165 24.7398 51.5264 24.7395ZM26.6 28.1139C28.1849 28.1139 29.435 29.3019 29.66 30.8345H23.54C23.765 29.3019 25.0151 28.1139 26.6 28.1139ZM5.09 34.4928H22.1V35.2437C22.1 36.147 22.8164 36.9006 23.7065 36.9006H29.4935C30.3845 36.9006 31.1 36.147 31.1 35.2437V34.4928H48.11C47.8796 36.5188 46.2524 38.0931 44.1743 38.0931H9.0257C6.9467 38.0931 5.3204 36.5188 5.09 34.4928ZM23 34.4928H30.2V35.2437C30.2 35.6754 29.885 35.9937 29.4935 35.9937H23.7065C23.315 35.9937 23 35.6754 23 35.2437V34.4928Z" fill="#407BFF"/>
</svg>
