<svg width="45" height="45" viewBox="0 0 45 45" fill="none" xmlns="http://www.w3.org/2000/svg">
<path d="M3.32031 42.727H7.9563C8.04532 42.7302 8.13409 42.7155 8.21738 42.6839C8.30066 42.6523 8.37679 42.6044 8.44127 42.5429C8.50576 42.4814 8.55731 42.4077 8.59288 42.326C8.62846 42.2444 8.64735 42.1564 8.64844 42.0673V40.3207H35.4609V42.0673C35.462 42.1564 35.4809 42.2444 35.5165 42.326C35.5521 42.4077 35.6036 42.4814 35.6681 42.5429C35.7326 42.6044 35.8087 42.6523 35.892 42.6839C35.9753 42.7155 36.064 42.7302 36.1531 42.727H40.7891C40.8778 42.7301 40.9663 42.7154 41.0493 42.6837C41.1323 42.652 41.2081 42.6039 41.2722 42.5424C41.3363 42.4809 41.3874 42.4072 41.4225 42.3256C41.4576 42.244 41.476 42.1562 41.4766 42.0673V37.1436C41.4767 36.961 41.4044 36.7858 41.2755 36.6565C41.1466 36.5271 40.9717 36.4541 40.7891 36.4536H39.1562V8.43793H40.7891C40.9717 8.43736 41.1466 8.36439 41.2755 8.23502C41.4044 8.10566 41.4767 7.93046 41.4766 7.74785V2.82415C41.476 2.73532 41.4576 2.6475 41.4225 2.56589C41.3874 2.48429 41.3363 2.41055 41.2722 2.34905C41.2081 2.28754 41.1323 2.23952 41.0493 2.20782C40.9663 2.17612 40.8778 2.16139 40.7891 2.16449H36.1531C36.064 2.1613 35.9753 2.17594 35.892 2.20755C35.8087 2.23917 35.7326 2.28711 35.6681 2.34857C35.6036 2.41003 35.5521 2.48377 35.5165 2.56544C35.4809 2.64711 35.462 2.73507 35.4609 2.82415V4.57074H8.64844V2.82415C8.64735 2.73507 8.62846 2.64711 8.59288 2.56544C8.55731 2.48377 8.50576 2.41003 8.44127 2.34857C8.37679 2.28711 8.30066 2.23917 8.21738 2.20755C8.13409 2.17594 8.04532 2.1613 7.9563 2.16449H3.32031C3.23153 2.16139 3.14303 2.17612 3.06005 2.20782C2.97706 2.23952 2.90127 2.28754 2.83717 2.34905C2.77307 2.41055 2.72196 2.48429 2.68686 2.56589C2.65176 2.6475 2.63338 2.73532 2.63281 2.82415V7.74785C2.6327 7.93046 2.70501 8.10566 2.83389 8.23502C2.96278 8.36439 3.1377 8.43736 3.32031 8.43793H4.95313V36.4536H3.32031C3.1377 36.4541 2.96278 36.5271 2.83389 36.6565C2.70501 36.7858 2.6327 36.961 2.63281 37.1436V42.0673C2.63338 42.1562 2.65176 42.244 2.68686 42.3256C2.72196 42.4072 2.77307 42.4809 2.83717 42.5424C2.90127 42.6039 2.97706 42.652 3.06005 42.6837C3.14303 42.7154 3.23153 42.7301 3.32031 42.727ZM40.1016 41.352H36.8359V37.8286H40.1016V41.352ZM36.8359 3.53949H40.1016V7.06293H36.8359V3.53949ZM4.00781 3.53949H7.27344V7.06293H4.00781V3.53949ZM6.32812 8.43793H7.9563C8.13938 8.43752 8.31488 8.36475 8.44454 8.23549C8.57419 8.10622 8.64749 7.93093 8.64844 7.74785V5.94574H35.4609V7.74785C35.4619 7.93093 35.5352 8.10622 35.6648 8.23549C35.7945 8.36475 35.97 8.43752 36.1531 8.43793H37.7812V36.4536H36.1531C35.97 36.454 35.7945 36.5267 35.6648 36.656C35.5352 36.7853 35.4619 36.9605 35.4609 37.1436V38.9457H8.64844V37.1436C8.64749 36.9605 8.57419 36.7853 8.44454 36.656C8.31488 36.5267 8.13938 36.454 7.9563 36.4536H6.32812V8.43793ZM4.00781 37.8286H7.27344V41.352H4.00781V37.8286Z" fill="#E86B31"/>
<path d="M15.614 31.3823H14.8481C14.6658 31.3823 14.4909 31.4548 14.362 31.5837C14.2331 31.7126 14.1606 31.8875 14.1606 32.0698C14.1606 32.2522 14.2331 32.427 14.362 32.556C14.4909 32.6849 14.6658 32.7573 14.8481 32.7573H15.9944L17.1822 37.058C17.2219 37.2038 17.3081 37.3326 17.4277 37.425C17.5472 37.5174 17.6937 37.5682 17.8448 37.5698H26.5363C26.6896 37.5682 26.838 37.5159 26.9585 37.4211C27.0789 37.3262 27.1646 37.1942 27.2022 37.0456L28.3025 32.7573H29.2616C29.4439 32.7573 29.6188 32.6849 29.7477 32.556C29.8766 32.427 29.9491 32.2522 29.9491 32.0698C29.9491 31.8875 29.8766 31.7126 29.7477 31.5837C29.6188 31.4548 29.4439 31.3823 29.2616 31.3823H28.6554L30.733 23.3052C30.7756 23.1409 30.7548 22.9665 30.6747 22.8168L22.6625 7.68153C22.6039 7.57114 22.5163 7.47881 22.4092 7.41448C22.302 7.35015 22.1793 7.31624 22.0544 7.31641C21.9294 7.31657 21.8068 7.35081 21.6998 7.41543C21.5928 7.48005 21.5055 7.57262 21.4472 7.68316L13.4353 22.821C13.3533 22.973 13.3336 23.151 13.3803 23.3173L15.614 31.3823ZM26.0032 36.1948H18.3681L17.4212 32.7573H26.8829L26.0032 36.1948ZM22.0548 20.0457C22.2949 20.0457 22.5296 20.1169 22.7292 20.2503C22.9288 20.3836 23.0844 20.5732 23.1762 20.795C23.2681 21.0168 23.2921 21.2608 23.2453 21.4963C23.1985 21.7317 23.0829 21.948 22.9131 22.1178C22.7434 22.2875 22.5271 22.4031 22.2916 22.4499C22.0562 22.4968 21.8121 22.4727 21.5904 22.3809C21.3686 22.289 21.179 22.1334 21.0456 21.9338C20.9123 21.7342 20.8411 21.4995 20.8411 21.2595C20.8414 20.9377 20.9694 20.6292 21.197 20.4016C21.4245 20.1741 21.733 20.0461 22.0548 20.0457ZM21.3673 10.7738V18.7641C20.7633 18.9305 20.2402 19.3103 19.8948 19.833C19.5495 20.3557 19.4055 20.986 19.4894 21.6068C19.5734 22.2277 19.8796 22.797 20.3514 23.2093C20.8231 23.6215 21.4283 23.8487 22.0548 23.8487C22.6813 23.8487 23.2866 23.6215 23.7583 23.2093C24.2301 22.797 24.5363 22.2277 24.6203 21.6068C24.7042 20.986 24.5602 20.3557 24.2149 19.833C23.8695 19.3103 23.3464 18.9305 22.7423 18.7641V10.7738L29.335 23.2207L27.2358 31.3823H17.0407L14.7781 23.2142L21.3673 10.7738Z" fill="#E86B31"/>
</svg>
