<svg width="72" height="73" viewBox="0 0 72 73" fill="none" xmlns="http://www.w3.org/2000/svg">
<mask id="mask0_998_275837" style="mask-type:luminance" maskUnits="userSpaceOnUse" x="0" y="0" width="72" height="73">
<path d="M71.965 0.261719H0.0351562V72.1915H71.965V0.261719Z" fill="white"/>
</mask>
<g mask="url(#mask0_998_275837)">
<path d="M67.3819 39.6568L57.3535 35.477V32.4762C58.7338 31.6838 59.9291 30.6059 60.8595 29.3145C61.7898 28.023 62.4337 26.5479 62.7482 24.9876H62.9729C63.8671 24.9998 64.7296 24.6563 65.3706 24.0326C66.0115 23.4089 66.3785 22.5562 66.3907 21.662C66.4029 20.7678 66.0594 19.9052 65.4358 19.2643C64.812 18.6234 63.9593 18.2564 63.0651 18.2442L64.1665 15.6907C65.1076 13.5086 65.1557 11.0446 64.3004 8.82753C63.4453 6.61045 61.7548 4.81705 59.5922 3.83232L56.4543 2.40496C54.5975 1.5806 52.5557 1.262 50.5361 1.48149C48.5164 1.70098 46.5907 2.45075 44.9545 3.65474L43.2057 4.97421C41.4201 5.43408 39.8864 6.57665 38.9348 8.15598C38.4093 9.02842 38.0814 10.0054 37.9743 11.0183C37.8671 12.0311 37.9832 13.0551 38.3145 14.0183C36.6177 13.6789 34.8666 13.7215 33.1883 14.143C33.6688 12.1038 33.4263 9.96112 32.5024 8.0808C31.5787 6.2005 30.0306 4.69925 28.1229 3.83344L24.985 2.40496C23.1282 1.5806 21.0864 1.262 19.0668 1.48149C17.0471 1.70098 15.1214 2.45075 13.4852 3.65474L11.7364 4.97421C10.7235 5.23302 9.78144 5.71537 8.97932 6.38583C8.1772 7.0563 7.5354 7.89787 7.10102 8.84878C6.66663 9.79969 6.45069 10.8358 6.46904 11.8811C6.48738 12.9263 6.73957 13.9542 7.20706 14.8892L8.88617 18.2442C7.99194 18.2626 7.14167 18.6356 6.52243 19.281C5.90317 19.9263 5.56566 20.7913 5.58415 21.6856C5.60262 22.5798 5.97557 23.43 6.62097 24.0493C7.26636 24.6685 8.1313 25.006 9.02554 24.9876H9.25032C9.56595 26.547 10.2104 28.0214 11.1406 29.3123C12.0708 30.6031 13.2655 31.6811 14.6451 32.4739V35.477L4.61646 39.6568C3.59127 40.0818 2.71535 40.8016 2.09971 41.7249C1.48405 42.6484 1.15637 43.7338 1.15821 44.8435V59.8285C1.15821 60.1266 1.27662 60.4124 1.4874 60.6233C1.69817 60.8341 1.98403 60.9525 2.28212 60.9525H10.1494V69.9437C10.1494 70.2418 10.2679 70.5276 10.4786 70.7384C10.6894 70.9492 10.9753 71.0676 11.2734 71.0676H60.7251C61.0232 71.0676 61.309 70.9492 61.5198 70.7384C61.7305 70.5276 61.8491 70.2418 61.8491 69.9437V60.9525H69.7163C70.0144 60.9525 70.3002 60.8341 70.511 60.6233C70.7218 60.4124 70.8403 60.1266 70.8403 59.8285V44.8435C70.842 43.7338 70.5145 42.6484 69.8987 41.7249C69.283 40.8016 68.4072 40.0818 67.3819 39.6568ZM39.7902 16.8133L42.9269 18.2442C44.554 18.9853 45.8255 20.3349 46.4687 22.0031C47.1119 23.6713 47.0755 25.5252 46.3672 27.1668L46.0301 27.9367L44.8781 25.6091C44.8046 25.4609 44.6993 25.3307 44.5698 25.2278C44.4402 25.125 44.2896 25.052 44.1284 25.0141C43.9675 24.9762 43.8 24.9744 43.6382 25.0086C43.4763 25.0428 43.3241 25.1125 43.1922 25.2123L41.394 26.561C39.8377 27.7283 37.9446 28.3592 35.9992 28.3592C34.0538 28.3592 32.1609 27.7283 30.6045 26.561L28.8062 25.2123C28.675 25.113 28.5234 25.044 28.3623 25.0103C28.2012 24.9768 28.0346 24.9792 27.8746 25.0179C27.714 25.0555 27.5639 25.128 27.4344 25.2301C27.3051 25.3323 27.1998 25.4617 27.126 25.6091L25.8842 28.1019L24.9557 26.2464C24.5936 25.5219 24.4225 24.717 24.4589 23.9079C24.4952 23.0989 24.7377 22.3124 25.1633 21.6234C25.5888 20.9343 26.1835 20.3654 26.8907 19.9708C27.5978 19.576 28.3942 19.3686 29.2041 19.368C30.0699 19.3673 30.9224 19.5805 31.6859 19.989C32.4492 20.3975 33.0997 20.9884 33.5795 21.7092L33.9324 22.2396L35.8026 20.992L35.4497 20.4628C34.4507 18.9661 32.9462 17.8792 31.2114 17.4011C32.4863 16.6144 33.9335 16.1497 35.4281 16.0473C36.9228 15.945 38.4198 16.2078 39.7902 16.8133ZM47.2383 32.8548H48.3622C48.6603 32.8548 48.9462 32.9732 49.1569 33.1841C49.3677 33.3949 49.4861 33.6807 49.4861 33.9788C49.4861 34.2769 49.3677 34.5627 49.1569 34.7735C48.9462 34.9843 48.6603 35.1026 48.3622 35.1026H47.2383V32.8548ZM32.6276 45.8236C34.8223 46.5145 37.1763 46.5145 39.371 45.8236V48.1242L35.9992 51.4959L32.6276 48.1242V45.8236ZM35.9992 44.0939C33.6155 44.0913 31.33 43.1431 29.6444 41.4575C27.9588 39.7719 27.0107 37.4865 27.008 35.1026V30.8723L28.5342 27.8186L29.2558 28.3592C31.2012 29.8184 33.5674 30.607 35.9992 30.607C38.431 30.607 40.7972 29.8184 42.7426 28.3592L43.4642 27.8186L44.9904 30.8723V35.1026C44.9877 37.4865 44.0397 39.7719 42.3541 41.4575C40.6685 43.1431 38.383 44.0913 35.9992 44.0939ZM24.7602 35.1026H23.6363C23.3383 35.1026 23.0523 34.9843 22.8415 34.7735C22.6308 34.5627 22.5124 34.2769 22.5124 33.9788C22.5124 33.6807 22.6308 33.3949 22.8415 33.1841C23.0523 32.9732 23.3383 32.8548 23.6363 32.8548H24.7602V35.1026ZM10.1494 57.6257V58.7047H3.40603V44.8435C3.40561 44.1782 3.60249 43.5275 3.97178 42.9741C4.34107 42.4205 4.86619 41.9889 5.48074 41.7337L16.2017 37.2673C16.407 37.1817 16.5822 37.0371 16.7052 36.8518C16.8282 36.6665 16.8935 36.449 16.8929 36.2266V31.8029C16.8869 31.59 16.8233 31.3827 16.7086 31.2032C16.594 31.0235 16.4327 30.8785 16.2421 30.7835C14.8986 30.1152 13.7444 29.12 12.8859 27.8892C12.0273 26.6585 11.4917 25.2317 11.3284 23.74C11.298 23.465 11.1672 23.2109 10.961 23.0263C10.7549 22.8418 10.4879 22.7398 10.2112 22.7398H9.02554C8.72745 22.7398 8.44159 22.6214 8.23082 22.4106C8.02005 22.1997 7.90164 21.9139 7.90164 21.6158C7.90164 21.3177 8.02005 21.0319 8.23082 20.8211C8.44159 20.6104 8.72745 20.492 9.02554 20.492H10.1494C10.2977 20.492 10.4445 20.4626 10.5814 20.4057C10.7182 20.3487 10.8425 20.2653 10.9469 20.1599C11.0514 20.0548 11.134 19.9299 11.1901 19.7927C11.2461 19.6554 11.2744 19.5084 11.2734 19.3602L11.2655 18.2363C11.2644 18.0646 11.2241 17.8955 11.1475 17.7418L9.21773 13.8834C8.89447 13.2356 8.7235 12.5225 8.71787 11.7986C8.71225 11.0747 8.8721 10.359 9.18523 9.70628C9.49837 9.05356 9.95652 8.481 10.5247 8.03235C11.0928 7.58368 11.756 7.27077 12.4636 7.1175C12.6226 7.08225 12.7724 7.01369 12.903 6.91631L14.8362 5.45525C16.1479 4.49111 17.6911 3.89081 19.3095 3.71516C20.928 3.53949 22.5642 3.79472 24.0521 4.45496L27.1923 5.8812C28.8193 6.62239 30.0909 7.97194 30.7341 9.64015C31.3773 11.3084 31.3409 13.1623 30.6325 14.8039L30.4505 15.2253C30.0237 15.4616 29.6133 15.7263 29.2221 16.0177L27.4496 17.345C26.4389 17.6047 25.499 18.0874 24.699 18.7576C23.899 19.428 23.2593 20.2688 22.8267 21.2186C22.394 22.1684 22.1795 23.2029 22.1989 24.2464C22.2182 25.2898 22.4708 26.3157 22.9383 27.2489L24.6196 30.607H23.6363C22.7421 30.607 21.8844 30.9624 21.2522 31.5946C20.6198 32.2269 20.2646 33.0846 20.2646 33.9788C20.2646 34.873 20.6198 35.7306 21.2522 36.363C21.8844 36.9953 22.7421 37.3505 23.6363 37.3505H24.985C25.3068 38.9056 25.9539 40.3751 26.8835 41.6626C27.8133 42.95 29.0048 44.0264 30.3798 44.8211V47.7354L14.2652 52.2119C13.0831 52.5429 12.0415 53.2508 11.2986 54.2279C10.5557 55.2052 10.1522 56.3982 10.1494 57.6257ZM59.6013 68.8198H52.8578V59.8285H50.61V68.8198H21.3885V59.8285H19.1407V68.8198H12.3973V57.6257C12.3989 56.8888 12.6414 56.1726 13.0877 55.5862C13.5341 54.9999 14.1599 54.5753 14.8698 54.3777L31.1766 49.8483L35.208 53.8798C35.4187 54.0904 35.7046 54.2088 36.0025 54.2088C36.3006 54.2088 36.5865 54.0904 36.7972 53.8798L40.8286 49.8483L57.1286 54.3777C57.8386 54.5753 58.4643 54.9999 58.9107 55.5862C59.3571 56.1726 59.5995 56.8888 59.6013 57.6257V68.8198ZM68.5925 58.7047H61.8491V57.6257C61.8462 56.3982 61.4428 55.2052 60.6999 54.2279C59.957 53.2508 58.9153 52.5429 57.7332 52.2119L41.6188 47.7354V44.8211C42.9937 44.0264 44.1851 42.95 45.1149 41.6626C46.0445 40.3751 46.6916 38.9056 47.0135 37.3505H48.3622C49.2565 37.3505 50.114 36.9953 50.7463 36.363C51.3787 35.7306 51.7339 34.873 51.7339 33.9788C51.7339 33.0846 51.3787 32.2269 50.7463 31.5946C50.114 30.9624 49.2565 30.607 48.3622 30.607H47.3305L48.4319 28.0547C49.373 25.8728 49.421 23.4087 48.5658 21.1916C47.7107 18.9745 46.0202 17.1812 43.8575 16.1963L41.2501 15.0085L40.6882 13.8845C40.3646 13.2368 40.1934 12.5237 40.1877 11.7997C40.1819 11.0757 40.3416 10.3599 40.6547 9.70703C40.9677 9.05418 41.4257 8.48148 41.9938 8.03269C42.5621 7.58389 43.2253 7.27085 43.9328 7.1175C44.0919 7.08225 44.2417 7.01369 44.3723 6.91631L46.3055 5.45525C47.6172 4.49111 49.1604 3.89081 50.7788 3.71516C52.3973 3.53949 54.0333 3.79472 55.5214 4.45496L58.6616 5.8812C60.2886 6.62239 61.5602 7.97194 62.2034 9.64015C62.8466 11.3084 62.8102 13.1623 62.1018 14.8039L60.8094 17.7946C60.7481 17.9365 60.7167 18.0895 60.7172 18.2442L60.7251 19.368C60.7251 19.6661 60.8435 19.9519 61.0542 20.1628C61.265 20.3736 61.551 20.492 61.8491 20.492H62.9729C63.271 20.492 63.5568 20.6104 63.7676 20.8211C63.9783 21.0319 64.0969 21.3177 64.0969 21.6158C64.0969 21.9139 63.9783 22.1997 63.7676 22.4106C63.5568 22.6214 63.271 22.7398 62.9729 22.7398H61.7872C61.5106 22.7398 61.2436 22.8418 61.0374 23.0263C60.8313 23.2109 60.7005 23.465 60.67 23.74C60.5061 25.2375 59.967 26.6692 59.1026 27.9028C58.2382 29.1364 57.0764 30.1319 55.7248 30.7971C55.5377 30.89 55.38 31.0334 55.2698 31.2112C55.1596 31.3889 55.1012 31.5938 55.101 31.8029V36.2266C55.101 36.4485 55.1666 36.6653 55.2896 36.8498C55.4126 37.0345 55.5876 37.1785 55.7923 37.264L66.5177 41.7337C67.1323 41.9889 67.6574 42.4205 68.0267 42.9741C68.396 43.5275 68.5928 44.1782 68.5925 44.8435V58.7047Z" fill="#FB8D48"/>
</g>
<path d="M36.7211 72.1914C55.3922 72.1914 70.5281 58.9143 70.5281 42.5361C70.5281 26.158 55.3922 12.8809 36.7211 12.8809C18.05 12.8809 2.91406 26.158 2.91406 42.5361C2.91406 58.9143 18.05 72.1914 36.7211 72.1914Z" fill="url(#paint0_linear_998_275837)"/>
<defs>
<linearGradient id="paint0_linear_998_275837" x1="36.7211" y1="12.8809" x2="36.7211" y2="72.1914" gradientUnits="userSpaceOnUse">
<stop stop-color="#FFBE55" stop-opacity="0"/>
<stop offset="1" stop-color="#E86B31" stop-opacity="0.28"/>
</linearGradient>
</defs>
</svg>
