<svg width="1350" height="100" viewBox="0 0 1350 100" fill="none" xmlns="http://www.w3.org/2000/svg">
<rect x="0.5" y="0.5" width="1348.93" height="99" rx="9.5" fill="black"/>
<rect x="0.5" y="0.5" width="1348.93" height="99" rx="9.5" stroke="url(#paint0_linear_1412_293823)"/>
<path d="M75.5696 61.0446L80.0002 58.4629V62.0703L78.7329 62.8136L65.8095 70.3358L61.1529 73.0463L58.1468 74.8005L57.0317 75.4496L55.4796 76.3564L52.3801 78.1602L51.992 77.9421L49.2168 76.3911L46.6773 74.9739L44.6191 73.8193V70.2862L46.3825 71.2723L49.7718 73.1702L51.992 74.4041L52.3162 74.5874L54.9884 73.0314L57.0317 71.8422L57.9945 71.2822L62.6462 68.5667L75.5696 61.0446Z" fill="#5D1F72"/>
<path d="M68.2606 71.7074L80.0002 64.8691V68.7045L71.6204 73.5855L66.9638 76.296L63.9577 78.0502L61.2855 79.6012L58.191 81.4099L57.0317 82.0838L55.4354 83.0154L52.4538 84.7498L51.992 84.4921L49.094 82.8717L46.6429 81.504L44.6191 80.3693V76.965L46.4562 77.9957L49.6245 79.7647L51.992 81.0878L52.0755 81.1374L54.8312 79.5318L57.0317 78.2484L57.9306 77.7281L60.5979 76.1672L63.604 74.418L68.2606 71.7074Z" fill="#5D1F72"/>
<path d="M43.8723 14.916L43.8821 14.921V80.1028L42.8113 79.5033L40.2718 78.086L36.8825 76.1882L32.6828 73.8394V32.3537L30.212 33.7907L20 39.742V28.8156L32.6828 21.4322L39.1273 17.6761L43.8723 14.916Z" fill="url(#paint1_linear_1412_293823)"/>
<path d="M79.9993 33.9139V21.159L65.5875 13.1017L57.0308 8.3149L56.0238 7.75L51.9911 10.0939L44.6182 14.3901V57.7786L51.9911 61.9014L52.4086 62.1393L57.0259 59.4485L65.3272 54.6122L57.0259 49.9691V44.5777L59.4033 45.9057L70.0525 51.857L74.3554 54.2653L69.635 57.0155L57.0259 64.3592L56.7115 64.5426L52.0599 67.2531L51.9862 67.2135L47.752 64.8448L44.6133 63.0907V66.5247L44.7459 66.599L49.0537 69.0073L51.9862 70.6475L52.443 70.9002L55.4491 69.151L57.0259 68.2293L60.1008 66.4355L73.0243 58.9084L77.7447 56.1582L79.9944 54.8451V41.7036L73.1618 37.8831L77.9068 35.1181L79.9944 33.904L79.9993 33.9139ZM69.802 36.01L57.0308 28.8694V23.4583L74.547 33.2499L69.802 36.01Z" fill="url(#paint2_linear_1412_293823)"/>
<path d="M110 48.25V25.45H100.76V20.25H124.84V25.45H111.6V26.57H115.6V48.25H110ZM135.186 32.21L144.466 30.61V35.81L135.186 37.41V47.25H136.306V43.05H148.106V48.25H129.586V20.25H148.106V25.45H131.186V26.57H135.186V32.21ZM167.919 30.49V27.69C167.919 26.17 167.159 25.45 165.679 25.45H161.479C159.999 25.45 159.239 26.21 159.239 27.69V40.81C159.239 42.29 159.999 43.05 161.479 43.05H165.679C167.159 43.05 167.919 42.33 167.919 40.81V38.01L173.559 40.81V42.01C173.559 46.21 171.359 48.25 167.319 48.25H159.879C155.679 48.25 153.639 46.21 153.639 42.01V26.49C153.639 22.29 155.679 20.25 159.879 20.25H167.319C171.519 20.25 173.559 22.29 173.559 26.49V27.69L167.919 30.49ZM198.829 20.25V48.25H193.229V35.49L197.229 33.33V32.21L193.229 34.37L185.069 38.21V48.25H179.469V20.25H185.069V31.69L181.069 33.85V34.97L185.069 32.81L193.229 28.97V20.25H198.829ZM104.84 72.25H99.6V77.93H95.6V79.05H104.84C106.28 79.05 106.96 78.33 106.96 76.93V74.37C106.96 72.97 106.28 72.25 104.84 72.25ZM105.16 61.45H95.6V62.57H99.6V67.05H105.16C106.36 67.05 106.92 66.45 106.92 65.29V63.21C106.92 62.05 106.36 61.45 105.16 61.45ZM94 84.25V56.25H106.72C110.6 56.25 112.52 58.13 112.52 62.01V63.29C112.52 67.17 110.6 69.09 106.72 69.09H102.8V70.21H106.4C110.52 70.21 112.56 72.21 112.56 76.33V78.09C112.56 82.21 110.52 84.25 106.4 84.25H94ZM124.092 56.25V76.81C124.092 78.33 124.812 79.05 126.332 79.05H131.772C133.292 79.05 134.012 78.29 134.012 76.81V56.25H139.612V78.01C139.612 82.21 137.572 84.25 133.372 84.25H124.732C120.532 84.25 118.492 82.21 118.492 78.01V56.25H124.092ZM153.194 56.25V84.25H147.594V56.25H153.194ZM167.908 79.05H179.708V84.25H161.188V56.25H166.788V83.25H167.908V79.05ZM196.989 61.45H186.069V62.57H190.069V77.93H186.069V79.05H196.989C198.469 79.05 199.229 78.29 199.229 76.81V63.69C199.229 62.21 198.469 61.45 196.989 61.45ZM184.469 84.25V56.25H198.589C202.789 56.25 204.829 58.29 204.829 62.49V78.01C204.829 82.21 202.789 84.25 198.589 84.25H184.469ZM218.038 68.21L227.318 66.61V71.81L218.038 73.41V83.25H219.158V79.05H230.958V84.25H212.438V56.25H230.958V61.45H214.038V62.57H218.038V68.21ZM248.411 61.45H242.491V68.21H238.491V69.33H248.411C249.891 69.33 250.651 68.61 250.651 67.09V63.69C250.651 62.17 249.891 61.45 248.411 61.45ZM236.891 84.25V56.25H242.491L250.011 56.29C254.171 56.33 256.251 58.41 256.251 62.57V65.13C256.251 69.29 254.171 71.37 250.011 71.37H245.691V72.49H250.011C254.171 72.49 256.251 74.57 256.251 78.73V84.25H250.651V76.77C250.651 75.29 249.891 74.53 248.411 74.53H238.491V75.65H242.491V84.25H236.891ZM266.964 74.65V76.81C266.964 78.29 267.724 79.05 269.204 79.05H274.404C275.604 79.05 276.204 78.45 276.204 77.25V75.25C276.204 74.09 275.604 73.45 274.444 73.29L266.804 72.29C263.164 71.81 261.364 69.73 261.364 66.01V62.49C261.364 58.29 263.404 56.25 267.604 56.25H275.484C279.204 56.25 281.004 58.05 281.004 61.77V62.69L275.404 65.49V63.69C275.404 62.17 274.684 61.45 273.164 61.45H268.764C267.564 61.45 266.964 62.05 266.964 63.25V65.29C266.964 66.49 267.564 67.21 268.764 67.37L276.364 68.33C280.004 68.81 281.804 70.89 281.804 74.61V78.01C281.804 82.21 279.764 84.25 275.564 84.25H266.884C263.204 84.25 261.364 82.41 261.364 78.73V77.41L266.964 74.65Z" fill="white"/>
<path d="M575.094 59.5V41.02H579.098V59.5H575.094ZM562.97 59.5V41.02H567.002V59.5H562.97ZM565.35 51.8V48.496H576.69V51.8H565.35ZM589.672 59.892C588.197 59.892 586.9 59.6027 585.78 59.024C584.66 58.4267 583.783 57.5587 583.148 56.42C582.513 55.2627 582.196 53.8253 582.196 52.108C582.196 50.3907 582.513 48.9627 583.148 47.824C583.801 46.6853 584.688 45.836 585.808 45.276C586.947 44.6973 588.235 44.408 589.672 44.408C591.147 44.408 592.444 44.6973 593.564 45.276C594.703 45.8547 595.589 46.7227 596.224 47.88C596.877 49.0187 597.204 50.4467 597.204 52.164C597.204 53.9 596.868 55.3467 596.196 56.504C595.543 57.6427 594.647 58.492 593.508 59.052C592.388 59.612 591.109 59.892 589.672 59.892ZM589.812 56.896C590.54 56.896 591.147 56.728 591.632 56.392C592.136 56.056 592.509 55.552 592.752 54.88C593.013 54.1893 593.144 53.3587 593.144 52.388C593.144 51.3613 593.004 50.4933 592.724 49.784C592.463 49.056 592.071 48.5053 591.548 48.132C591.025 47.74 590.363 47.544 589.56 47.544C588.869 47.544 588.272 47.712 587.768 48.048C587.264 48.3653 586.881 48.8693 586.62 49.56C586.359 50.232 586.228 51.0627 586.228 52.052C586.228 53.6387 586.545 54.8427 587.18 55.664C587.815 56.4853 588.692 56.896 589.812 56.896ZM600.071 59.5V50.092V44.8H603.291V49.196H603.823C604.084 48.1133 604.429 47.2267 604.859 46.536C605.288 45.8267 605.801 45.2947 606.399 44.94C607.015 44.5853 607.733 44.408 608.555 44.408C609.432 44.408 610.16 44.604 610.739 44.996C611.317 45.388 611.765 45.9387 612.083 46.648C612.4 47.3387 612.605 48.188 612.699 49.196H613.147C613.427 48.0947 613.8 47.1893 614.267 46.48C614.752 45.7707 615.321 45.248 615.975 44.912C616.647 44.576 617.384 44.408 618.187 44.408C618.989 44.408 619.689 44.5667 620.287 44.884C620.903 45.2013 621.416 45.6773 621.827 46.312C622.237 46.928 622.545 47.712 622.751 48.664C622.956 49.5973 623.059 50.68 623.059 51.912V59.5H619.027V52.416C619.027 51.408 618.943 50.568 618.775 49.896C618.607 49.2053 618.345 48.692 617.991 48.356C617.636 48.02 617.179 47.852 616.619 47.852C616.003 47.852 615.471 48.0667 615.023 48.496C614.575 48.9067 614.22 49.476 613.959 50.204C613.697 50.932 613.557 51.7627 613.539 52.696V59.5H609.591V52.528C609.591 51.4827 609.497 50.624 609.311 49.952C609.124 49.2613 608.853 48.7387 608.499 48.384C608.144 48.0293 607.696 47.852 607.155 47.852C606.52 47.852 605.979 48.0667 605.531 48.496C605.083 48.9067 604.737 49.4853 604.495 50.232C604.252 50.9787 604.121 51.8093 604.103 52.724V59.5H600.071ZM633.399 59.892C632.185 59.892 631.103 59.724 630.151 59.388C629.217 59.052 628.424 58.5667 627.771 57.932C627.117 57.2973 626.613 56.5133 626.259 55.58C625.923 54.6467 625.755 53.592 625.755 52.416C625.755 51.2587 625.913 50.1947 626.231 49.224C626.567 48.2347 627.052 47.3853 627.687 46.676C628.321 45.948 629.096 45.388 630.011 44.996C630.925 44.604 631.961 44.408 633.119 44.408C634.239 44.408 635.237 44.5947 636.115 44.968C636.992 45.3227 637.72 45.864 638.299 46.592C638.896 47.32 639.325 48.216 639.587 49.28C639.867 50.3253 639.969 51.5293 639.895 52.892L628.359 53.004V50.792L637.571 50.708L636.143 51.828C636.273 50.8387 636.208 50.0267 635.947 49.392C635.685 48.7573 635.303 48.2907 634.799 47.992C634.313 47.6933 633.772 47.544 633.175 47.544C632.465 47.544 631.84 47.7307 631.299 48.104C630.757 48.4773 630.337 49.028 630.039 49.756C629.74 50.4653 629.591 51.324 629.591 52.332C629.591 53.9187 629.936 55.0853 630.627 55.832C631.336 56.5787 632.26 56.952 633.399 56.952C633.921 56.952 634.36 56.8867 634.715 56.756C635.088 56.6067 635.387 56.42 635.611 56.196C635.853 55.972 636.04 55.72 636.171 55.44C636.32 55.16 636.441 54.88 636.535 54.6L640.035 55.356C639.867 56.0467 639.615 56.672 639.279 57.232C638.961 57.7733 638.532 58.2493 637.991 58.66C637.449 59.052 636.796 59.3507 636.031 59.556C635.284 59.78 634.407 59.892 633.399 59.892Z" fill="url(#paint3_linear_1412_293823)"/>
<path d="M679.534 56.812C678.478 56.812 677.55 56.7 676.75 56.476C675.966 56.252 675.302 55.924 674.758 55.492C674.23 55.044 673.838 54.5 673.582 53.86C673.326 53.22 673.214 52.476 673.246 51.628L675.238 51.196C675.174 52.028 675.31 52.724 675.646 53.284C675.982 53.844 676.494 54.268 677.182 54.556C677.87 54.828 678.678 54.964 679.606 54.964C680.502 54.964 681.262 54.852 681.886 54.628C682.51 54.404 682.974 54.092 683.278 53.692C683.598 53.292 683.758 52.836 683.758 52.324C683.758 51.748 683.574 51.292 683.206 50.956C682.838 50.62 682.342 50.364 681.718 50.188C681.11 49.996 680.43 49.82 679.678 49.66C678.942 49.5 678.206 49.316 677.47 49.108C676.734 48.9 676.07 48.636 675.478 48.316C674.902 47.98 674.43 47.548 674.062 47.02C673.71 46.476 673.534 45.788 673.534 44.956C673.534 44.012 673.766 43.196 674.23 42.508C674.71 41.82 675.382 41.292 676.246 40.924C677.11 40.54 678.126 40.348 679.294 40.348C680.446 40.348 681.47 40.532 682.366 40.9C683.278 41.268 683.998 41.812 684.526 42.532C685.054 43.236 685.334 44.108 685.366 45.148L683.302 45.652C683.302 45.076 683.198 44.572 682.99 44.14C682.798 43.692 682.526 43.332 682.174 43.06C681.822 42.772 681.398 42.556 680.902 42.412C680.406 42.252 679.862 42.172 679.27 42.172C678.55 42.172 677.918 42.284 677.374 42.508C676.83 42.732 676.406 43.036 676.102 43.42C675.798 43.804 675.646 44.26 675.646 44.788C675.646 45.412 675.862 45.908 676.294 46.276C676.742 46.628 677.318 46.908 678.022 47.116C678.726 47.324 679.478 47.516 680.278 47.692C680.966 47.836 681.638 48.012 682.294 48.22C682.966 48.412 683.574 48.676 684.118 49.012C684.662 49.332 685.094 49.756 685.414 50.284C685.734 50.812 685.894 51.484 685.894 52.3C685.894 53.212 685.654 54.004 685.174 54.676C684.71 55.348 684.006 55.876 683.062 56.26C682.118 56.628 680.942 56.812 679.534 56.812ZM694.384 56.812C693.408 56.812 692.544 56.668 691.792 56.38C691.056 56.076 690.432 55.644 689.92 55.084C689.408 54.524 689.024 53.86 688.768 53.092C688.512 52.324 688.384 51.46 688.384 50.5C688.384 49.524 688.512 48.628 688.768 47.812C689.024 46.996 689.4 46.284 689.896 45.676C690.392 45.068 691 44.604 691.72 44.284C692.44 43.948 693.264 43.78 694.192 43.78C695.008 43.78 695.752 43.916 696.424 44.188C697.096 44.46 697.664 44.884 698.128 45.46C698.608 46.02 698.968 46.732 699.208 47.596C699.448 48.444 699.544 49.444 699.496 50.596L689.752 50.668V49.18L698.176 49.108L697.432 50.116C697.512 49.108 697.416 48.276 697.144 47.62C696.872 46.964 696.48 46.468 695.968 46.132C695.472 45.796 694.88 45.628 694.192 45.628C693.456 45.628 692.808 45.82 692.248 46.204C691.688 46.588 691.256 47.14 690.952 47.86C690.664 48.58 690.52 49.452 690.52 50.476C690.52 51.948 690.848 53.076 691.504 53.86C692.16 54.628 693.136 55.012 694.432 55.012C694.928 55.012 695.36 54.956 695.728 54.844C696.112 54.716 696.432 54.548 696.688 54.34C696.96 54.116 697.176 53.86 697.336 53.572C697.512 53.284 697.648 52.972 697.744 52.636L699.664 53.092C699.52 53.668 699.296 54.188 698.992 54.652C698.704 55.1 698.336 55.484 697.888 55.804C697.456 56.124 696.952 56.372 696.376 56.548C695.8 56.724 695.136 56.812 694.384 56.812ZM702.603 56.5V49.78V44.092H704.571L704.379 48.412H704.787C704.931 47.468 705.155 46.652 705.459 45.964C705.763 45.276 706.163 44.74 706.659 44.356C707.171 43.972 707.803 43.78 708.555 43.78C708.715 43.78 708.899 43.796 709.107 43.828C709.315 43.844 709.555 43.9 709.827 43.996L709.707 46.276C709.467 46.18 709.227 46.116 708.987 46.084C708.747 46.036 708.515 46.012 708.291 46.012C707.667 46.012 707.123 46.212 706.659 46.612C706.211 47.012 705.835 47.556 705.531 48.244C705.227 48.916 704.979 49.676 704.787 50.524V56.5H702.603ZM715.962 56.5L711.522 44.116H713.946L717.33 54.652H717.666L721.026 44.116H723.402L718.986 56.5H715.962ZM725.783 56.5V44.092H727.967V56.5H725.783ZM726.887 41.932C726.375 41.932 725.991 41.828 725.735 41.62C725.479 41.412 725.351 41.1 725.351 40.684C725.351 40.268 725.479 39.956 725.735 39.748C725.991 39.54 726.367 39.436 726.863 39.436C727.375 39.436 727.759 39.54 728.015 39.748C728.271 39.956 728.399 40.268 728.399 40.684C728.399 41.084 728.271 41.396 728.015 41.62C727.759 41.828 727.383 41.932 726.887 41.932ZM737.087 56.812C735.999 56.812 735.071 56.636 734.303 56.284C733.551 55.932 732.935 55.46 732.455 54.868C731.991 54.276 731.647 53.596 731.423 52.828C731.215 52.06 731.111 51.26 731.111 50.428C731.111 49.516 731.231 48.66 731.471 47.86C731.711 47.06 732.071 46.356 732.551 45.748C733.047 45.124 733.655 44.644 734.375 44.308C735.111 43.956 735.967 43.78 736.943 43.78C737.887 43.78 738.719 43.948 739.439 44.284C740.159 44.604 740.743 45.06 741.191 45.652C741.655 46.244 741.951 46.948 742.079 47.764L739.991 48.34C739.959 47.892 739.823 47.46 739.583 47.044C739.359 46.628 739.023 46.292 738.575 46.036C738.127 45.764 737.575 45.628 736.919 45.628C736.295 45.628 735.759 45.748 735.311 45.988C734.879 46.228 734.511 46.564 734.207 46.996C733.919 47.428 733.695 47.932 733.535 48.508C733.391 49.084 733.319 49.708 733.319 50.38C733.319 51.308 733.447 52.116 733.703 52.804C733.975 53.492 734.391 54.028 734.951 54.412C735.511 54.796 736.231 54.988 737.111 54.988C737.767 54.988 738.327 54.876 738.791 54.652C739.255 54.412 739.623 54.084 739.895 53.668C740.167 53.236 740.343 52.732 740.423 52.156L742.439 52.612C742.327 53.3 742.119 53.908 741.815 54.436C741.511 54.964 741.127 55.404 740.663 55.756C740.199 56.092 739.663 56.348 739.055 56.524C738.463 56.716 737.807 56.812 737.087 56.812ZM750.259 56.812C749.283 56.812 748.419 56.668 747.667 56.38C746.931 56.076 746.307 55.644 745.795 55.084C745.283 54.524 744.899 53.86 744.643 53.092C744.387 52.324 744.259 51.46 744.259 50.5C744.259 49.524 744.387 48.628 744.643 47.812C744.899 46.996 745.275 46.284 745.771 45.676C746.267 45.068 746.875 44.604 747.595 44.284C748.315 43.948 749.139 43.78 750.067 43.78C750.883 43.78 751.627 43.916 752.299 44.188C752.971 44.46 753.539 44.884 754.003 45.46C754.483 46.02 754.843 46.732 755.083 47.596C755.323 48.444 755.419 49.444 755.371 50.596L745.627 50.668V49.18L754.051 49.108L753.307 50.116C753.387 49.108 753.291 48.276 753.019 47.62C752.747 46.964 752.355 46.468 751.843 46.132C751.347 45.796 750.755 45.628 750.067 45.628C749.331 45.628 748.683 45.82 748.123 46.204C747.563 46.588 747.131 47.14 746.827 47.86C746.539 48.58 746.395 49.452 746.395 50.476C746.395 51.948 746.723 53.076 747.379 53.86C748.035 54.628 749.011 55.012 750.307 55.012C750.803 55.012 751.235 54.956 751.603 54.844C751.987 54.716 752.307 54.548 752.563 54.34C752.835 54.116 753.051 53.86 753.211 53.572C753.387 53.284 753.523 52.972 753.619 52.636L755.539 53.092C755.395 53.668 755.171 54.188 754.867 54.652C754.579 55.1 754.211 55.484 753.763 55.804C753.331 56.124 752.827 56.372 752.251 56.548C751.675 56.724 751.011 56.812 750.259 56.812ZM763.274 56.812C762.41 56.812 761.642 56.716 760.97 56.524C760.298 56.348 759.738 56.092 759.29 55.756C758.842 55.404 758.498 54.988 758.258 54.508C758.018 54.028 757.89 53.5 757.874 52.924L759.722 52.444C759.69 52.972 759.818 53.436 760.106 53.836C760.41 54.22 760.834 54.516 761.378 54.724C761.938 54.932 762.61 55.036 763.394 55.036C764.338 55.036 765.066 54.876 765.578 54.556C766.106 54.236 766.37 53.796 766.37 53.236C766.37 52.788 766.226 52.444 765.938 52.204C765.65 51.948 765.25 51.748 764.738 51.604C764.242 51.444 763.65 51.3 762.962 51.172C762.386 51.044 761.81 50.9 761.234 50.74C760.658 50.58 760.13 50.372 759.65 50.116C759.186 49.844 758.81 49.492 758.522 49.06C758.234 48.628 758.09 48.092 758.09 47.452C758.09 46.7 758.29 46.052 758.69 45.508C759.09 44.964 759.658 44.54 760.394 44.236C761.13 43.932 762.01 43.78 763.034 43.78C764.058 43.78 764.93 43.94 765.65 44.26C766.37 44.564 766.938 44.996 767.354 45.556C767.77 46.116 768.002 46.772 768.05 47.524L766.154 48.004C766.138 47.476 765.994 47.028 765.722 46.66C765.466 46.292 765.098 46.02 764.618 45.844C764.138 45.652 763.578 45.556 762.938 45.556C762.09 45.556 761.418 45.716 760.922 46.036C760.426 46.356 760.178 46.796 760.178 47.356C760.178 47.772 760.322 48.108 760.61 48.364C760.914 48.62 761.322 48.82 761.834 48.964C762.346 49.108 762.914 49.252 763.538 49.396C764.178 49.524 764.786 49.668 765.362 49.828C765.954 49.988 766.482 50.196 766.946 50.452C767.41 50.708 767.778 51.052 768.05 51.484C768.322 51.9 768.458 52.436 768.458 53.092C768.458 53.908 768.242 54.596 767.81 55.156C767.378 55.7 766.77 56.116 765.986 56.404C765.218 56.676 764.314 56.812 763.274 56.812Z" fill="white"/>
<path opacity="0.8" d="M789.926 47.2656L794.926 52.7344L799.926 47.2656" stroke="white" stroke-width="2" stroke-linecap="round" stroke-linejoin="round"/>
<path d="M833.166 51.652V49.78H837.054C838.574 49.78 839.718 49.492 840.486 48.916C841.254 48.324 841.638 47.38 841.638 46.084C841.638 44.884 841.278 43.988 840.558 43.396C839.854 42.788 838.766 42.484 837.294 42.484H833.166V40.66H837.342C838.382 40.66 839.302 40.78 840.102 41.02C840.918 41.26 841.606 41.612 842.166 42.076C842.726 42.54 843.15 43.116 843.438 43.804C843.742 44.476 843.894 45.26 843.894 46.156C843.894 47.34 843.622 48.34 843.078 49.156C842.534 49.972 841.734 50.596 840.678 51.028C839.622 51.444 838.326 51.652 836.79 51.652H833.166ZM831.99 56.5V40.66H834.198V56.5H831.99ZM846.681 56.5V49.78V44.092H848.649L848.457 48.412H848.865C849.009 47.468 849.233 46.652 849.537 45.964C849.841 45.276 850.241 44.74 850.737 44.356C851.249 43.972 851.881 43.78 852.633 43.78C852.793 43.78 852.977 43.796 853.185 43.828C853.393 43.844 853.633 43.9 853.905 43.996L853.785 46.276C853.545 46.18 853.305 46.116 853.065 46.084C852.825 46.036 852.593 46.012 852.369 46.012C851.745 46.012 851.201 46.212 850.737 46.612C850.289 47.012 849.913 47.556 849.609 48.244C849.305 48.916 849.057 49.676 848.865 50.524V56.5H846.681ZM861.408 56.812C860.224 56.812 859.176 56.556 858.264 56.044C857.368 55.516 856.664 54.764 856.152 53.788C855.656 52.812 855.408 51.628 855.408 50.236C855.408 48.796 855.672 47.604 856.2 46.66C856.744 45.7 857.464 44.98 858.36 44.5C859.256 44.02 860.256 43.78 861.36 43.78C862.512 43.78 863.536 44.036 864.432 44.548C865.344 45.044 866.064 45.78 866.592 46.756C867.12 47.716 867.384 48.908 867.384 50.332C867.384 51.756 867.12 52.948 866.592 53.908C866.08 54.868 865.368 55.596 864.456 56.092C863.56 56.572 862.544 56.812 861.408 56.812ZM861.504 55.012C862.272 55.012 862.928 54.828 863.472 54.46C864.032 54.076 864.456 53.54 864.744 52.852C865.048 52.164 865.2 51.348 865.2 50.404C865.2 49.428 865.04 48.588 864.72 47.884C864.416 47.164 863.976 46.612 863.4 46.228C862.824 45.828 862.128 45.628 861.312 45.628C860.576 45.628 859.928 45.804 859.368 46.156C858.808 46.508 858.376 47.028 858.072 47.716C857.768 48.388 857.616 49.212 857.616 50.188C857.616 51.692 857.96 52.876 858.648 53.74C859.352 54.588 860.304 55.012 861.504 55.012ZM869.178 60.916C868.97 60.916 868.746 60.892 868.506 60.844C868.266 60.812 868.01 60.756 867.738 60.676L867.57 58.66C868.61 58.9 869.362 58.9 869.826 58.66C870.306 58.42 870.546 57.812 870.546 56.836V44.092H872.754V56.596C872.754 57.3 872.674 57.924 872.514 58.468C872.37 59.012 872.154 59.46 871.866 59.812C871.578 60.18 871.21 60.452 870.762 60.628C870.314 60.82 869.786 60.916 869.178 60.916ZM871.65 41.932C871.138 41.932 870.754 41.828 870.498 41.62C870.242 41.412 870.114 41.1 870.114 40.684C870.114 40.268 870.242 39.956 870.498 39.748C870.754 39.54 871.13 39.436 871.626 39.436C872.138 39.436 872.522 39.54 872.778 39.748C873.034 39.956 873.162 40.268 873.162 40.684C873.162 41.084 873.034 41.396 872.778 41.62C872.522 41.828 872.146 41.932 871.65 41.932ZM881.869 56.812C880.893 56.812 880.029 56.668 879.277 56.38C878.541 56.076 877.917 55.644 877.405 55.084C876.893 54.524 876.509 53.86 876.253 53.092C875.997 52.324 875.869 51.46 875.869 50.5C875.869 49.524 875.997 48.628 876.253 47.812C876.509 46.996 876.885 46.284 877.381 45.676C877.877 45.068 878.485 44.604 879.205 44.284C879.925 43.948 880.749 43.78 881.677 43.78C882.493 43.78 883.237 43.916 883.909 44.188C884.581 44.46 885.149 44.884 885.613 45.46C886.093 46.02 886.453 46.732 886.693 47.596C886.933 48.444 887.029 49.444 886.981 50.596L877.237 50.668V49.18L885.661 49.108L884.917 50.116C884.997 49.108 884.901 48.276 884.629 47.62C884.357 46.964 883.965 46.468 883.453 46.132C882.957 45.796 882.365 45.628 881.677 45.628C880.941 45.628 880.293 45.82 879.733 46.204C879.173 46.588 878.741 47.14 878.437 47.86C878.149 48.58 878.005 49.452 878.005 50.476C878.005 51.948 878.333 53.076 878.989 53.86C879.645 54.628 880.621 55.012 881.917 55.012C882.413 55.012 882.845 54.956 883.213 54.844C883.597 54.716 883.917 54.548 884.173 54.34C884.445 54.116 884.661 53.86 884.821 53.572C884.997 53.284 885.133 52.972 885.229 52.636L887.149 53.092C887.005 53.668 886.781 54.188 886.477 54.652C886.189 55.1 885.821 55.484 885.373 55.804C884.941 56.124 884.437 56.372 883.861 56.548C883.285 56.724 882.621 56.812 881.869 56.812ZM895.462 56.812C894.374 56.812 893.446 56.636 892.678 56.284C891.926 55.932 891.31 55.46 890.83 54.868C890.366 54.276 890.022 53.596 889.798 52.828C889.59 52.06 889.486 51.26 889.486 50.428C889.486 49.516 889.606 48.66 889.846 47.86C890.086 47.06 890.446 46.356 890.926 45.748C891.422 45.124 892.03 44.644 892.75 44.308C893.486 43.956 894.342 43.78 895.318 43.78C896.262 43.78 897.094 43.948 897.814 44.284C898.534 44.604 899.118 45.06 899.566 45.652C900.03 46.244 900.326 46.948 900.454 47.764L898.366 48.34C898.334 47.892 898.198 47.46 897.958 47.044C897.734 46.628 897.398 46.292 896.95 46.036C896.502 45.764 895.95 45.628 895.294 45.628C894.67 45.628 894.134 45.748 893.686 45.988C893.254 46.228 892.886 46.564 892.582 46.996C892.294 47.428 892.07 47.932 891.91 48.508C891.766 49.084 891.694 49.708 891.694 50.38C891.694 51.308 891.822 52.116 892.078 52.804C892.35 53.492 892.766 54.028 893.326 54.412C893.886 54.796 894.606 54.988 895.486 54.988C896.142 54.988 896.702 54.876 897.166 54.652C897.63 54.412 897.998 54.084 898.27 53.668C898.542 53.236 898.718 52.732 898.798 52.156L900.814 52.612C900.702 53.3 900.494 53.908 900.19 54.436C899.886 54.964 899.502 55.404 899.038 55.756C898.574 56.092 898.038 56.348 897.43 56.524C896.838 56.716 896.182 56.812 895.462 56.812ZM907.17 56.74C906.018 56.74 905.162 56.428 904.602 55.804C904.042 55.18 903.762 54.228 903.762 52.948V45.916H901.89L901.914 44.092H903.09C903.49 44.092 903.778 44.02 903.954 43.876C904.146 43.732 904.258 43.492 904.29 43.156L904.53 41.284H905.874V44.092H909.45V45.94H905.874V52.9C905.874 53.54 906.018 54.004 906.306 54.292C906.61 54.564 907.042 54.7 907.602 54.7C907.906 54.7 908.218 54.66 908.538 54.58C908.874 54.5 909.202 54.34 909.522 54.1V56.284C909.058 56.46 908.626 56.58 908.226 56.644C907.842 56.708 907.49 56.74 907.17 56.74ZM916.82 56.812C915.956 56.812 915.188 56.716 914.516 56.524C913.844 56.348 913.284 56.092 912.836 55.756C912.388 55.404 912.044 54.988 911.804 54.508C911.564 54.028 911.436 53.5 911.42 52.924L913.268 52.444C913.236 52.972 913.364 53.436 913.652 53.836C913.956 54.22 914.38 54.516 914.924 54.724C915.484 54.932 916.156 55.036 916.94 55.036C917.884 55.036 918.612 54.876 919.124 54.556C919.652 54.236 919.916 53.796 919.916 53.236C919.916 52.788 919.772 52.444 919.484 52.204C919.196 51.948 918.796 51.748 918.284 51.604C917.788 51.444 917.196 51.3 916.508 51.172C915.932 51.044 915.356 50.9 914.78 50.74C914.204 50.58 913.676 50.372 913.196 50.116C912.732 49.844 912.356 49.492 912.068 49.06C911.78 48.628 911.636 48.092 911.636 47.452C911.636 46.7 911.836 46.052 912.236 45.508C912.636 44.964 913.204 44.54 913.94 44.236C914.676 43.932 915.556 43.78 916.58 43.78C917.604 43.78 918.476 43.94 919.196 44.26C919.916 44.564 920.484 44.996 920.9 45.556C921.316 46.116 921.548 46.772 921.596 47.524L919.7 48.004C919.684 47.476 919.54 47.028 919.268 46.66C919.012 46.292 918.644 46.02 918.164 45.844C917.684 45.652 917.124 45.556 916.484 45.556C915.636 45.556 914.964 45.716 914.468 46.036C913.972 46.356 913.724 46.796 913.724 47.356C913.724 47.772 913.868 48.108 914.156 48.364C914.46 48.62 914.868 48.82 915.38 48.964C915.892 49.108 916.46 49.252 917.084 49.396C917.724 49.524 918.332 49.668 918.908 49.828C919.5 49.988 920.028 50.196 920.492 50.452C920.956 50.708 921.324 51.052 921.596 51.484C921.868 51.9 922.004 52.436 922.004 53.092C922.004 53.908 921.788 54.596 921.356 55.156C920.924 55.7 920.316 56.116 919.532 56.404C918.764 56.676 917.86 56.812 916.82 56.812Z" fill="white"/>
<path d="M955.646 56.5L961.214 40.66H964.43L969.998 56.5H967.622L962.966 42.508H962.678L958.022 56.5H955.646ZM958.286 52.948V51.268H967.622V52.948H958.286ZM978.98 56.812C978.18 56.812 977.492 56.652 976.916 56.332C976.356 56.012 975.9 55.58 975.548 55.036C975.212 54.476 974.956 53.844 974.78 53.14H974.396L974.516 56.5H972.548V50.38V39.7H974.756V43.588C974.756 44.004 974.732 44.444 974.684 44.908C974.652 45.356 974.596 45.82 974.516 46.3C974.452 46.78 974.38 47.244 974.3 47.692H974.732C974.908 47.02 975.164 46.388 975.5 45.796C975.836 45.204 976.284 44.724 976.844 44.356C977.42 43.988 978.132 43.804 978.98 43.804C980.036 43.804 980.932 44.084 981.668 44.644C982.42 45.188 982.996 45.948 983.396 46.924C983.796 47.9 983.996 49.036 983.996 50.332C983.996 51.58 983.796 52.692 983.396 53.668C983.012 54.644 982.444 55.412 981.692 55.972C980.956 56.532 980.052 56.812 978.98 56.812ZM978.452 54.892C979.14 54.892 979.724 54.708 980.204 54.34C980.684 53.972 981.052 53.444 981.308 52.756C981.58 52.068 981.716 51.268 981.716 50.356C981.716 49.46 981.588 48.668 981.332 47.98C981.076 47.276 980.708 46.724 980.228 46.324C979.748 45.908 979.156 45.7 978.452 45.7C977.94 45.7 977.484 45.804 977.084 46.012C976.684 46.204 976.332 46.468 976.028 46.804C975.74 47.14 975.5 47.508 975.308 47.908C975.116 48.308 974.972 48.708 974.876 49.108C974.78 49.508 974.732 49.876 974.732 50.212V50.5C974.732 50.98 974.812 51.476 974.972 51.988C975.148 52.5 975.396 52.98 975.716 53.428C976.036 53.86 976.428 54.212 976.892 54.484C977.356 54.756 977.876 54.892 978.452 54.892ZM992.478 56.812C991.294 56.812 990.246 56.556 989.334 56.044C988.438 55.516 987.734 54.764 987.222 53.788C986.726 52.812 986.478 51.628 986.478 50.236C986.478 48.796 986.742 47.604 987.27 46.66C987.814 45.7 988.534 44.98 989.43 44.5C990.326 44.02 991.326 43.78 992.43 43.78C993.582 43.78 994.606 44.036 995.502 44.548C996.414 45.044 997.134 45.78 997.662 46.756C998.19 47.716 998.454 48.908 998.454 50.332C998.454 51.756 998.19 52.948 997.662 53.908C997.15 54.868 996.438 55.596 995.526 56.092C994.63 56.572 993.614 56.812 992.478 56.812ZM992.574 55.012C993.342 55.012 993.998 54.828 994.542 54.46C995.102 54.076 995.526 53.54 995.814 52.852C996.118 52.164 996.27 51.348 996.27 50.404C996.27 49.428 996.11 48.588 995.79 47.884C995.486 47.164 995.046 46.612 994.47 46.228C993.894 45.828 993.198 45.628 992.382 45.628C991.646 45.628 990.998 45.804 990.438 46.156C989.878 46.508 989.446 47.028 989.142 47.716C988.838 48.388 988.686 49.212 988.686 50.188C988.686 51.692 989.03 52.876 989.718 53.74C990.422 54.588 991.374 55.012 992.574 55.012ZM1005.55 56.812C1004.17 56.812 1003.13 56.332 1002.43 55.372C1001.72 54.412 1001.37 52.98 1001.37 51.076V44.092H1003.58V50.884C1003.58 52.228 1003.79 53.228 1004.2 53.884C1004.62 54.54 1005.28 54.868 1006.17 54.868C1006.67 54.868 1007.11 54.748 1007.49 54.508C1007.89 54.268 1008.24 53.924 1008.55 53.476C1008.85 53.028 1009.1 52.5 1009.29 51.892C1009.48 51.268 1009.61 50.596 1009.68 49.876V44.092H1011.86V51.316V56.5H1009.92L1010.11 52.516H1009.75C1009.54 53.508 1009.24 54.324 1008.86 54.964C1008.49 55.588 1008.03 56.052 1007.47 56.356C1006.91 56.66 1006.27 56.812 1005.55 56.812ZM1019.54 56.74C1018.39 56.74 1017.53 56.428 1016.97 55.804C1016.41 55.18 1016.13 54.228 1016.13 52.948V45.916H1014.26L1014.28 44.092H1015.46C1015.86 44.092 1016.15 44.02 1016.32 43.876C1016.51 43.732 1016.63 43.492 1016.66 43.156L1016.9 41.284H1018.24V44.092H1021.82V45.94H1018.24V52.9C1018.24 53.54 1018.39 54.004 1018.67 54.292C1018.98 54.564 1019.41 54.7 1019.97 54.7C1020.27 54.7 1020.59 54.66 1020.91 54.58C1021.24 54.5 1021.57 54.34 1021.89 54.1V56.284C1021.43 56.46 1020.99 56.58 1020.59 56.644C1020.21 56.708 1019.86 56.74 1019.54 56.74ZM1037.32 56.812C1036.46 56.812 1035.67 56.716 1034.97 56.524C1034.27 56.348 1033.65 56.084 1033.12 55.732C1032.59 55.364 1032.15 54.924 1031.78 54.412C1031.43 53.9 1031.15 53.316 1030.96 52.66C1030.79 52.004 1030.7 51.276 1030.7 50.476V40.66H1032.91V50.404C1032.91 51.364 1033.07 52.172 1033.41 52.828C1033.75 53.468 1034.24 53.956 1034.9 54.292C1035.55 54.628 1036.36 54.796 1037.32 54.796C1038.31 54.796 1039.13 54.636 1039.77 54.316C1040.43 53.98 1040.91 53.484 1041.23 52.828C1041.57 52.172 1041.74 51.364 1041.74 50.404V40.66H1043.92V50.476C1043.92 52.492 1043.36 54.052 1042.24 55.156C1041.12 56.26 1039.48 56.812 1037.32 56.812ZM1052.34 56.812C1051.48 56.812 1050.71 56.716 1050.04 56.524C1049.37 56.348 1048.81 56.092 1048.36 55.756C1047.91 55.404 1047.57 54.988 1047.33 54.508C1047.09 54.028 1046.96 53.5 1046.94 52.924L1048.79 52.444C1048.76 52.972 1048.89 53.436 1049.18 53.836C1049.48 54.22 1049.9 54.516 1050.45 54.724C1051.01 54.932 1051.68 55.036 1052.46 55.036C1053.41 55.036 1054.14 54.876 1054.65 54.556C1055.18 54.236 1055.44 53.796 1055.44 53.236C1055.44 52.788 1055.3 52.444 1055.01 52.204C1054.72 51.948 1054.32 51.748 1053.81 51.604C1053.31 51.444 1052.72 51.3 1052.03 51.172C1051.46 51.044 1050.88 50.9 1050.3 50.74C1049.73 50.58 1049.2 50.372 1048.72 50.116C1048.26 49.844 1047.88 49.492 1047.59 49.06C1047.3 48.628 1047.16 48.092 1047.16 47.452C1047.16 46.7 1047.36 46.052 1047.76 45.508C1048.16 44.964 1048.73 44.54 1049.46 44.236C1050.2 43.932 1051.08 43.78 1052.1 43.78C1053.13 43.78 1054 43.94 1054.72 44.26C1055.44 44.564 1056.01 44.996 1056.42 45.556C1056.84 46.116 1057.07 46.772 1057.12 47.524L1055.22 48.004C1055.21 47.476 1055.06 47.028 1054.79 46.66C1054.54 46.292 1054.17 46.02 1053.69 45.844C1053.21 45.652 1052.65 45.556 1052.01 45.556C1051.16 45.556 1050.49 45.716 1049.99 46.036C1049.5 46.356 1049.25 46.796 1049.25 47.356C1049.25 47.772 1049.39 48.108 1049.68 48.364C1049.98 48.62 1050.39 48.82 1050.9 48.964C1051.42 49.108 1051.98 49.252 1052.61 49.396C1053.25 49.524 1053.86 49.668 1054.43 49.828C1055.02 49.988 1055.55 50.196 1056.02 50.452C1056.48 50.708 1056.85 51.052 1057.12 51.484C1057.39 51.9 1057.53 52.436 1057.53 53.092C1057.53 53.908 1057.31 54.596 1056.88 55.156C1056.45 55.7 1055.84 56.116 1055.06 56.404C1054.29 56.676 1053.38 56.812 1052.34 56.812Z" fill="white"/>
<path d="M1103.69 56.812C1102.55 56.812 1101.53 56.636 1100.61 56.284C1099.72 55.932 1098.96 55.412 1098.33 54.724C1097.71 54.036 1097.23 53.196 1096.89 52.204C1096.57 51.196 1096.41 50.052 1096.41 48.772C1096.41 47.476 1096.58 46.316 1096.92 45.292C1097.25 44.252 1097.73 43.364 1098.36 42.628C1098.98 41.892 1099.73 41.332 1100.61 40.948C1101.49 40.548 1102.48 40.348 1103.57 40.348C1104.4 40.348 1105.17 40.468 1105.87 40.708C1106.57 40.932 1107.18 41.268 1107.69 41.716C1108.22 42.148 1108.63 42.676 1108.92 43.3C1109.21 43.924 1109.36 44.62 1109.37 45.388L1107.29 45.916C1107.3 45.1 1107.13 44.428 1106.78 43.9C1106.43 43.356 1105.97 42.948 1105.39 42.676C1104.81 42.404 1104.19 42.268 1103.52 42.268C1102.89 42.268 1102.29 42.396 1101.69 42.652C1101.12 42.892 1100.61 43.276 1100.16 43.804C1099.71 44.316 1099.35 44.98 1099.08 45.796C1098.82 46.596 1098.69 47.564 1098.69 48.7C1098.69 50.156 1098.9 51.332 1099.32 52.228C1099.75 53.124 1100.35 53.788 1101.12 54.22C1101.89 54.636 1102.77 54.844 1103.78 54.844C1104.76 54.844 1105.54 54.668 1106.13 54.316C1106.73 53.948 1107.17 53.444 1107.45 52.804C1107.74 52.148 1107.91 51.396 1107.96 50.548L1109.93 50.908C1109.91 51.708 1109.78 52.468 1109.54 53.188C1109.3 53.908 1108.93 54.54 1108.44 55.084C1107.94 55.628 1107.3 56.052 1106.52 56.356C1105.73 56.66 1104.79 56.812 1103.69 56.812ZM1118.13 56.812C1116.95 56.812 1115.9 56.556 1114.99 56.044C1114.09 55.516 1113.39 54.764 1112.88 53.788C1112.38 52.812 1112.13 51.628 1112.13 50.236C1112.13 48.796 1112.4 47.604 1112.93 46.66C1113.47 45.7 1114.19 44.98 1115.09 44.5C1115.98 44.02 1116.98 43.78 1118.09 43.78C1119.24 43.78 1120.26 44.036 1121.16 44.548C1122.07 45.044 1122.79 45.78 1123.32 46.756C1123.85 47.716 1124.11 48.908 1124.11 50.332C1124.11 51.756 1123.85 52.948 1123.32 53.908C1122.81 54.868 1122.09 55.596 1121.18 56.092C1120.29 56.572 1119.27 56.812 1118.13 56.812ZM1118.23 55.012C1119 55.012 1119.65 54.828 1120.2 54.46C1120.76 54.076 1121.18 53.54 1121.47 52.852C1121.77 52.164 1121.93 51.348 1121.93 50.404C1121.93 49.428 1121.77 48.588 1121.45 47.884C1121.14 47.164 1120.7 46.612 1120.13 46.228C1119.55 45.828 1118.85 45.628 1118.04 45.628C1117.3 45.628 1116.65 45.804 1116.09 46.156C1115.53 46.508 1115.1 47.028 1114.8 47.716C1114.49 48.388 1114.34 49.212 1114.34 50.188C1114.34 51.692 1114.69 52.876 1115.37 53.74C1116.08 54.588 1117.03 55.012 1118.23 55.012ZM1127.22 56.5V48.796V44.092H1129.19L1128.97 48.028H1129.38C1129.6 47.052 1129.9 46.252 1130.27 45.628C1130.65 45.004 1131.13 44.54 1131.71 44.236C1132.28 43.932 1132.96 43.78 1133.72 43.78C1135.1 43.78 1136.14 44.276 1136.84 45.268C1137.56 46.244 1137.92 47.708 1137.92 49.66V56.5H1135.72V49.852C1135.72 48.444 1135.49 47.404 1135.04 46.732C1134.61 46.06 1133.97 45.724 1133.12 45.724C1132.36 45.724 1131.7 45.964 1131.16 46.444C1130.63 46.924 1130.21 47.556 1129.91 48.34C1129.6 49.124 1129.44 49.972 1129.4 50.884V56.5H1127.22ZM1145.36 56.74C1144.21 56.74 1143.35 56.428 1142.79 55.804C1142.23 55.18 1141.95 54.228 1141.95 52.948V45.916H1140.08L1140.1 44.092H1141.28C1141.68 44.092 1141.97 44.02 1142.14 43.876C1142.33 43.732 1142.45 43.492 1142.48 43.156L1142.72 41.284H1144.06V44.092H1147.64V45.94H1144.06V52.9C1144.06 53.54 1144.21 54.004 1144.49 54.292C1144.8 54.564 1145.23 54.7 1145.79 54.7C1146.09 54.7 1146.41 54.66 1146.73 54.58C1147.06 54.5 1147.39 54.34 1147.71 54.1V56.284C1147.25 56.46 1146.81 56.58 1146.41 56.644C1146.03 56.708 1145.68 56.74 1145.36 56.74ZM1153.26 56.812C1152.58 56.812 1151.98 56.684 1151.43 56.428C1150.89 56.156 1150.46 55.764 1150.14 55.252C1149.82 54.724 1149.66 54.06 1149.66 53.26C1149.66 52.668 1149.76 52.148 1149.97 51.7C1150.19 51.252 1150.53 50.868 1150.98 50.548C1151.44 50.228 1152.03 49.964 1152.75 49.756C1153.47 49.548 1154.35 49.372 1155.39 49.228C1155.98 49.148 1156.46 49.068 1156.83 48.988C1157.22 48.908 1157.5 48.78 1157.67 48.604C1157.85 48.412 1157.94 48.132 1157.94 47.764C1157.94 47.156 1157.73 46.644 1157.31 46.228C1156.9 45.812 1156.24 45.604 1155.34 45.604C1154.88 45.604 1154.41 45.684 1153.93 45.844C1153.45 46.004 1153.02 46.276 1152.66 46.66C1152.3 47.028 1152.08 47.548 1151.98 48.22L1149.97 47.548C1150.1 46.972 1150.3 46.452 1150.59 45.988C1150.9 45.524 1151.28 45.132 1151.74 44.812C1152.21 44.476 1152.74 44.22 1153.35 44.044C1153.98 43.868 1154.66 43.78 1155.42 43.78C1156.46 43.78 1157.32 43.956 1158.01 44.308C1158.71 44.66 1159.23 45.204 1159.57 45.94C1159.92 46.66 1160.1 47.588 1160.1 48.724V51.484C1160.1 51.98 1160.1 52.524 1160.12 53.116C1160.15 53.692 1160.19 54.276 1160.24 54.868C1160.29 55.444 1160.34 55.988 1160.38 56.5H1158.37C1158.32 55.988 1158.27 55.476 1158.22 54.964C1158.19 54.452 1158.17 53.94 1158.15 53.428H1157.84C1157.6 54.02 1157.28 54.572 1156.88 55.084C1156.48 55.596 1155.98 56.012 1155.37 56.332C1154.78 56.652 1154.07 56.812 1153.26 56.812ZM1153.9 55.036C1154.26 55.036 1154.61 54.98 1154.96 54.868C1155.33 54.756 1155.69 54.572 1156.04 54.316C1156.41 54.06 1156.75 53.732 1157.07 53.332C1157.41 52.932 1157.7 52.452 1157.96 51.892V49.492L1158.58 49.612C1158.33 49.868 1157.98 50.06 1157.55 50.188C1157.14 50.316 1156.67 50.42 1156.16 50.5C1155.65 50.58 1155.14 50.668 1154.62 50.764C1154.11 50.844 1153.64 50.972 1153.21 51.148C1152.79 51.308 1152.46 51.54 1152.2 51.844C1151.94 52.148 1151.82 52.564 1151.82 53.092C1151.82 53.732 1152.01 54.22 1152.39 54.556C1152.78 54.876 1153.28 55.036 1153.9 55.036ZM1169.09 56.812C1168 56.812 1167.07 56.636 1166.3 56.284C1165.55 55.932 1164.94 55.46 1164.46 54.868C1163.99 54.276 1163.65 53.596 1163.42 52.828C1163.22 52.06 1163.11 51.26 1163.11 50.428C1163.11 49.516 1163.23 48.66 1163.47 47.86C1163.71 47.06 1164.07 46.356 1164.55 45.748C1165.05 45.124 1165.66 44.644 1166.38 44.308C1167.11 43.956 1167.97 43.78 1168.94 43.78C1169.89 43.78 1170.72 43.948 1171.44 44.284C1172.16 44.604 1172.74 45.06 1173.19 45.652C1173.66 46.244 1173.95 46.948 1174.08 47.764L1171.99 48.34C1171.96 47.892 1171.82 47.46 1171.58 47.044C1171.36 46.628 1171.02 46.292 1170.58 46.036C1170.13 45.764 1169.58 45.628 1168.92 45.628C1168.3 45.628 1167.76 45.748 1167.31 45.988C1166.88 46.228 1166.51 46.564 1166.21 46.996C1165.92 47.428 1165.7 47.932 1165.54 48.508C1165.39 49.084 1165.32 49.708 1165.32 50.38C1165.32 51.308 1165.45 52.116 1165.7 52.804C1165.98 53.492 1166.39 54.028 1166.95 54.412C1167.51 54.796 1168.23 54.988 1169.11 54.988C1169.77 54.988 1170.33 54.876 1170.79 54.652C1171.26 54.412 1171.62 54.084 1171.9 53.668C1172.17 53.236 1172.34 52.732 1172.42 52.156L1174.44 52.612C1174.33 53.3 1174.12 53.908 1173.82 54.436C1173.51 54.964 1173.13 55.404 1172.66 55.756C1172.2 56.092 1171.66 56.348 1171.06 56.524C1170.46 56.716 1169.81 56.812 1169.09 56.812ZM1180.8 56.74C1179.64 56.74 1178.79 56.428 1178.23 55.804C1177.67 55.18 1177.39 54.228 1177.39 52.948V45.916H1175.52L1175.54 44.092H1176.72C1177.12 44.092 1177.4 44.02 1177.58 43.876C1177.77 43.732 1177.88 43.492 1177.92 43.156L1178.16 41.284H1179.5V44.092H1183.08V45.94H1179.5V52.9C1179.5 53.54 1179.64 54.004 1179.93 54.292C1180.24 54.564 1180.67 54.7 1181.23 54.7C1181.53 54.7 1181.84 54.66 1182.16 54.58C1182.5 54.5 1182.83 54.34 1183.15 54.1V56.284C1182.68 56.46 1182.25 56.58 1181.85 56.644C1181.47 56.708 1181.12 56.74 1180.8 56.74ZM1198.58 56.812C1197.72 56.812 1196.93 56.716 1196.23 56.524C1195.52 56.348 1194.91 56.084 1194.38 55.732C1193.85 55.364 1193.4 54.924 1193.04 54.412C1192.68 53.9 1192.41 53.316 1192.22 52.66C1192.04 52.004 1191.96 51.276 1191.96 50.476V40.66H1194.16V50.404C1194.16 51.364 1194.33 52.172 1194.67 52.828C1195 53.468 1195.5 53.956 1196.16 54.292C1196.81 54.628 1197.62 54.796 1198.58 54.796C1199.57 54.796 1200.39 54.636 1201.03 54.316C1201.68 53.98 1202.17 53.484 1202.49 52.828C1202.83 52.172 1203 51.364 1203 50.404V40.66H1205.18V50.476C1205.18 52.492 1204.62 54.052 1203.5 55.156C1202.38 56.26 1200.74 56.812 1198.58 56.812ZM1213.6 56.812C1212.74 56.812 1211.97 56.716 1211.3 56.524C1210.63 56.348 1210.07 56.092 1209.62 55.756C1209.17 55.404 1208.83 54.988 1208.59 54.508C1208.35 54.028 1208.22 53.5 1208.2 52.924L1210.05 52.444C1210.02 52.972 1210.15 53.436 1210.43 53.836C1210.74 54.22 1211.16 54.516 1211.71 54.724C1212.27 54.932 1212.94 55.036 1213.72 55.036C1214.67 55.036 1215.39 54.876 1215.91 54.556C1216.43 54.236 1216.7 53.796 1216.7 53.236C1216.7 52.788 1216.55 52.444 1216.27 52.204C1215.98 51.948 1215.58 51.748 1215.07 51.604C1214.57 51.444 1213.98 51.3 1213.29 51.172C1212.71 51.044 1212.14 50.9 1211.56 50.74C1210.99 50.58 1210.46 50.372 1209.98 50.116C1209.51 49.844 1209.14 49.492 1208.85 49.06C1208.56 48.628 1208.42 48.092 1208.42 47.452C1208.42 46.7 1208.62 46.052 1209.02 45.508C1209.42 44.964 1209.99 44.54 1210.72 44.236C1211.46 43.932 1212.34 43.78 1213.36 43.78C1214.39 43.78 1215.26 43.94 1215.98 44.26C1216.7 44.564 1217.27 44.996 1217.68 45.556C1218.1 46.116 1218.33 46.772 1218.38 47.524L1216.48 48.004C1216.47 47.476 1216.32 47.028 1216.05 46.66C1215.79 46.292 1215.43 46.02 1214.95 45.844C1214.47 45.652 1213.91 45.556 1213.27 45.556C1212.42 45.556 1211.75 45.716 1211.25 46.036C1210.75 46.356 1210.51 46.796 1210.51 47.356C1210.51 47.772 1210.65 48.108 1210.94 48.364C1211.24 48.62 1211.65 48.82 1212.16 48.964C1212.67 49.108 1213.24 49.252 1213.87 49.396C1214.51 49.524 1215.11 49.668 1215.69 49.828C1216.28 49.988 1216.81 50.196 1217.27 50.452C1217.74 50.708 1218.11 51.052 1218.38 51.484C1218.65 51.9 1218.79 52.436 1218.79 53.092C1218.79 53.908 1218.57 54.596 1218.14 55.156C1217.71 55.7 1217.1 56.116 1216.31 56.404C1215.55 56.676 1214.64 56.812 1213.6 56.812Z" fill="white"/>
<path d="M1256.99 56.5V40.66H1262.8C1263.68 40.66 1264.48 40.74 1265.2 40.9C1265.93 41.06 1266.56 41.308 1267.07 41.644C1267.58 41.964 1267.97 42.388 1268.25 42.916C1268.53 43.444 1268.68 44.076 1268.68 44.812C1268.68 45.42 1268.56 45.956 1268.32 46.42C1268.08 46.884 1267.69 47.26 1267.17 47.548C1266.65 47.836 1265.97 48.06 1265.13 48.22V48.484C1266.6 48.612 1267.66 49.012 1268.32 49.684C1268.99 50.356 1269.33 51.236 1269.33 52.324C1269.33 53.22 1269.11 53.98 1268.68 54.604C1268.26 55.212 1267.61 55.684 1266.73 56.02C1265.87 56.34 1264.75 56.5 1263.37 56.5H1256.99ZM1259.1 54.628H1263.59C1264.79 54.628 1265.68 54.428 1266.25 54.028C1266.85 53.612 1267.14 52.98 1267.14 52.132C1267.14 51.156 1266.73 50.428 1265.92 49.948C1265.12 49.452 1263.9 49.204 1262.27 49.204H1259.1V54.628ZM1259.1 47.572H1261.84C1263.41 47.572 1264.57 47.364 1265.34 46.948C1266.11 46.516 1266.49 45.876 1266.49 45.028C1266.49 44.18 1266.16 43.548 1265.49 43.132C1264.83 42.716 1263.83 42.508 1262.49 42.508H1259.1V47.572ZM1272.6 56.5V39.7H1274.78V56.5H1272.6ZM1283.88 56.812C1282.69 56.812 1281.64 56.556 1280.73 56.044C1279.84 55.516 1279.13 54.764 1278.62 53.788C1278.12 52.812 1277.88 51.628 1277.88 50.236C1277.88 48.796 1278.14 47.604 1278.67 46.66C1279.21 45.7 1279.93 44.98 1280.83 44.5C1281.72 44.02 1282.72 43.78 1283.83 43.78C1284.98 43.78 1286 44.036 1286.9 44.548C1287.81 45.044 1288.53 45.78 1289.06 46.756C1289.59 47.716 1289.85 48.908 1289.85 50.332C1289.85 51.756 1289.59 52.948 1289.06 53.908C1288.55 54.868 1287.84 55.596 1286.92 56.092C1286.03 56.572 1285.01 56.812 1283.88 56.812ZM1283.97 55.012C1284.74 55.012 1285.4 54.828 1285.94 54.46C1286.5 54.076 1286.92 53.54 1287.21 52.852C1287.52 52.164 1287.67 51.348 1287.67 50.404C1287.67 49.428 1287.51 48.588 1287.19 47.884C1286.88 47.164 1286.44 46.612 1285.87 46.228C1285.29 45.828 1284.6 45.628 1283.78 45.628C1283.04 45.628 1282.4 45.804 1281.84 46.156C1281.28 46.508 1280.84 47.028 1280.54 47.716C1280.24 48.388 1280.08 49.212 1280.08 50.188C1280.08 51.692 1280.43 52.876 1281.12 53.74C1281.82 54.588 1282.77 55.012 1283.97 55.012ZM1297.59 60.7C1296.28 60.7 1295.2 60.596 1294.35 60.388C1293.52 60.196 1292.91 59.892 1292.51 59.476C1292.11 59.076 1291.91 58.572 1291.91 57.964C1291.91 57.228 1292.19 56.62 1292.77 56.14C1293.35 55.66 1294.22 55.34 1295.39 55.18V54.748C1294.54 54.748 1293.9 54.644 1293.47 54.436C1293.03 54.228 1292.82 53.916 1292.82 53.5C1292.82 53.068 1293.03 52.708 1293.47 52.42C1293.9 52.116 1294.6 51.836 1295.58 51.58V51.124C1294.6 51.108 1293.86 50.82 1293.35 50.26C1292.83 49.684 1292.58 48.94 1292.58 48.028C1292.58 47.212 1292.79 46.508 1293.23 45.916C1293.67 45.308 1294.31 44.844 1295.15 44.524C1295.99 44.188 1297 44.02 1298.17 44.02H1304.03V45.868L1300.19 45.268V45.724C1301.11 45.916 1301.83 46.244 1302.32 46.708C1302.82 47.156 1303.07 47.764 1303.07 48.532C1303.07 49.22 1302.87 49.82 1302.47 50.332C1302.07 50.844 1301.47 51.244 1300.69 51.532C1299.92 51.804 1298.97 51.94 1297.83 51.94C1297.61 51.94 1297.37 51.932 1297.11 51.916C1296.87 51.884 1296.55 51.836 1296.15 51.772C1295.72 52.044 1295.37 52.292 1295.1 52.516C1294.84 52.74 1294.71 52.94 1294.71 53.116C1294.71 53.292 1294.83 53.436 1295.07 53.548C1295.33 53.644 1295.63 53.708 1295.99 53.74C1296.34 53.772 1296.67 53.788 1296.97 53.788H1299.78C1300.1 53.788 1300.5 53.82 1300.98 53.884C1301.47 53.948 1301.96 54.084 1302.44 54.292C1302.94 54.5 1303.35 54.82 1303.69 55.252C1304.03 55.684 1304.19 56.284 1304.19 57.052C1304.19 57.916 1303.94 58.62 1303.43 59.164C1302.91 59.708 1302.17 60.1 1301.19 60.34C1300.22 60.58 1299.02 60.7 1297.59 60.7ZM1297.64 58.9C1298.71 58.9 1299.58 58.828 1300.23 58.684C1300.91 58.556 1301.39 58.348 1301.7 58.06C1302.02 57.772 1302.18 57.404 1302.18 56.956C1302.18 56.54 1302.07 56.22 1301.84 55.996C1301.63 55.756 1301.37 55.588 1301.05 55.492C1300.73 55.396 1300.41 55.34 1300.09 55.324C1299.77 55.292 1299.5 55.276 1299.27 55.276H1296.47C1295.54 55.484 1294.9 55.772 1294.55 56.14C1294.19 56.508 1294.02 56.9 1294.02 57.316C1294.02 57.764 1294.18 58.1 1294.5 58.324C1294.82 58.548 1295.25 58.7 1295.79 58.78C1296.35 58.86 1296.97 58.9 1297.64 58.9ZM1297.93 50.524C1298.94 50.524 1299.7 50.316 1300.21 49.9C1300.72 49.484 1300.98 48.924 1300.98 48.22C1300.98 47.468 1300.71 46.852 1300.19 46.372C1299.67 45.876 1298.9 45.628 1297.86 45.628C1296.85 45.628 1296.07 45.86 1295.53 46.324C1295 46.788 1294.74 47.388 1294.74 48.124C1294.74 48.604 1294.86 49.028 1295.1 49.396C1295.35 49.748 1295.71 50.028 1296.18 50.236C1296.66 50.428 1297.24 50.524 1297.93 50.524ZM1311.54 56.812C1310.68 56.812 1309.91 56.716 1309.24 56.524C1308.56 56.348 1308 56.092 1307.56 55.756C1307.11 55.404 1306.76 54.988 1306.52 54.508C1306.28 54.028 1306.16 53.5 1306.14 52.924L1307.99 52.444C1307.96 52.972 1308.08 53.436 1308.37 53.836C1308.68 54.22 1309.1 54.516 1309.64 54.724C1310.2 54.932 1310.88 55.036 1311.66 55.036C1312.6 55.036 1313.33 54.876 1313.84 54.556C1314.37 54.236 1314.64 53.796 1314.64 53.236C1314.64 52.788 1314.49 52.444 1314.2 52.204C1313.92 51.948 1313.52 51.748 1313 51.604C1312.51 51.444 1311.92 51.3 1311.23 51.172C1310.65 51.044 1310.08 50.9 1309.5 50.74C1308.92 50.58 1308.4 50.372 1307.92 50.116C1307.45 49.844 1307.08 49.492 1306.79 49.06C1306.5 48.628 1306.36 48.092 1306.36 47.452C1306.36 46.7 1306.56 46.052 1306.96 45.508C1307.36 44.964 1307.92 44.54 1308.66 44.236C1309.4 43.932 1310.28 43.78 1311.3 43.78C1312.32 43.78 1313.2 43.94 1313.92 44.26C1314.64 44.564 1315.2 44.996 1315.62 45.556C1316.04 46.116 1316.27 46.772 1316.32 47.524L1314.42 48.004C1314.4 47.476 1314.26 47.028 1313.99 46.66C1313.73 46.292 1313.36 46.02 1312.88 45.844C1312.4 45.652 1311.84 45.556 1311.2 45.556C1310.36 45.556 1309.68 45.716 1309.19 46.036C1308.69 46.356 1308.44 46.796 1308.44 47.356C1308.44 47.772 1308.59 48.108 1308.88 48.364C1309.18 48.62 1309.59 48.82 1310.1 48.964C1310.61 49.108 1311.18 49.252 1311.8 49.396C1312.44 49.524 1313.05 49.668 1313.63 49.828C1314.22 49.988 1314.75 50.196 1315.21 50.452C1315.68 50.708 1316.04 51.052 1316.32 51.484C1316.59 51.9 1316.72 52.436 1316.72 53.092C1316.72 53.908 1316.51 54.596 1316.08 55.156C1315.64 55.7 1315.04 56.116 1314.25 56.404C1313.48 56.676 1312.58 56.812 1311.54 56.812Z" fill="white"/>
<defs>
<linearGradient id="paint0_linear_1412_293823" x1="23.477" y1="43.0555" x2="1269.62" y2="369.269" gradientUnits="userSpaceOnUse">
<stop stop-color="#FB8D48"/>
<stop offset="0.2" stop-color="#ED7136"/>
<stop offset="0.3999" stop-color="#C54E47"/>
<stop offset="0.4" stop-color="#C14F49"/>
<stop offset="0.6" stop-color="#9D3863"/>
<stop offset="0.8" stop-color="#5E1F72"/>
</linearGradient>
<linearGradient id="paint1_linear_1412_293823" x1="31.7888" y1="30.0495" x2="52.2707" y2="55.5382" gradientUnits="userSpaceOnUse">
<stop stop-color="#FB8D48"/>
<stop offset="0.2" stop-color="#ED7136"/>
<stop offset="0.3999" stop-color="#C54E47"/>
<stop offset="0.4" stop-color="#C14F49"/>
<stop offset="0.6" stop-color="#9D3863"/>
<stop offset="0.8" stop-color="#5E1F72"/>
</linearGradient>
<linearGradient id="paint2_linear_1412_293823" x1="62.2427" y1="10.2276" x2="79.5178" y2="52.1408" gradientUnits="userSpaceOnUse">
<stop stop-color="#FB8D48"/>
<stop offset="0.2" stop-color="#ED7136"/>
<stop offset="0.3999" stop-color="#C54E47"/>
<stop offset="0.4" stop-color="#C14F49"/>
<stop offset="0.6" stop-color="#9D3863"/>
<stop offset="0.8" stop-color="#5E1F72"/>
</linearGradient>
<linearGradient id="paint3_linear_1412_293823" x1="562.334" y1="48" x2="642.079" y2="51.4794" gradientUnits="userSpaceOnUse">
<stop stop-color="#FB8D48"/>
<stop offset="0.2" stop-color="#ED7136"/>
<stop offset="0.3999" stop-color="#C54E47"/>
<stop offset="0.4" stop-color="#C14F49"/>
<stop offset="0.6" stop-color="#9D3863"/>
<stop offset="0.8" stop-color="#5E1F72"/>
</linearGradient>
</defs>
</svg>
