<svg width="73" height="73" viewBox="0 0 73 73" fill="none" xmlns="http://www.w3.org/2000/svg">
<g clip-path="url(#clip0_998_275824)">
<path d="M70.7068 16.3388L65.138 21.9076L52.4098 9.18158L57.9785 3.61058C58.1834 3.3984 58.2968 3.11423 58.2943 2.81926C58.2917 2.52428 58.1734 2.24212 57.9648 2.03354C57.7562 1.82495 57.4741 1.70664 57.1791 1.70407C56.8841 1.70151 56.5999 1.8149 56.3878 2.01983L55.5935 2.81408L43.6618 14.7481C43.4509 14.9591 43.3324 15.2451 43.3324 15.5435C43.3324 15.8418 43.4509 16.1279 43.6618 16.3388L44.4583 17.1353L42.8158 18.7778L41.765 19.8241L37.652 18.4538C37.4536 18.3882 37.2409 18.3789 37.0375 18.427C36.8341 18.475 36.6481 18.5786 36.5 18.7261L35.7035 17.9296C35.2038 17.4456 34.5697 17.1235 33.8841 17.0055C33.1986 16.8875 32.4933 16.979 31.8605 17.2681L30.1348 15.5423L30.929 14.7481C31.1399 14.5371 31.2584 14.251 31.2584 13.9527C31.2584 13.6544 31.1399 13.3683 30.929 13.1573L18.9995 1.22333L18.203 0.429082C17.9908 0.224154 17.7067 0.110761 17.4117 0.113324C17.1167 0.115887 16.8346 0.234202 16.626 0.442786C16.4174 0.65137 16.2991 0.933534 16.2965 1.22851C16.2939 1.52348 16.4073 1.80765 16.6123 2.01983L22.181 7.59083L9.45277 20.3168L3.88402 14.7481C3.67184 14.5432 3.38766 14.4298 3.09269 14.4323C2.79772 14.4349 2.51556 14.5532 2.30697 14.7618C2.09839 14.9704 1.98007 15.2525 1.97751 15.5475C1.97495 15.8425 2.08834 16.1267 2.29327 16.3388L3.08977 17.1353L15.0215 29.0693C15.126 29.1741 15.2502 29.2572 15.3868 29.3139C15.5235 29.3706 15.67 29.3998 15.818 29.3998C15.966 29.3998 16.1125 29.3706 16.2492 29.3139C16.3859 29.2572 16.51 29.1741 16.6145 29.0693L17.411 28.2728L19.7983 30.6601H19.8005L20.0975 30.9616L18.7273 35.0746C18.6613 35.2724 18.6516 35.4847 18.6993 35.6877C18.7469 35.8908 18.8501 36.0765 18.9973 36.2243L18.2008 37.0208C17.7085 37.5151 17.3811 38.1495 17.2635 38.8371C17.1459 39.5247 17.2438 40.2318 17.5438 40.8616L15.8158 42.5896L15.0193 41.7931C14.8045 41.5896 14.5198 41.4762 14.2239 41.4762C13.928 41.4762 13.6433 41.5896 13.4285 41.7931L1.49677 53.7271L0.70252 54.5236C0.497592 54.7358 0.384198 55.0199 0.386761 55.3149C0.389324 55.6099 0.50764 55.892 0.716224 56.1006C0.924808 56.3092 1.20697 56.4275 1.50194 56.4301C1.79691 56.4327 2.08109 56.3193 2.29327 56.1143L7.86202 50.5456L20.5903 63.2716L15.0215 68.8426C14.9171 68.9472 14.8342 69.0713 14.7778 69.2079C14.7213 69.3445 14.6923 69.4909 14.6924 69.6388C14.6925 69.7866 14.7217 69.9329 14.7784 70.0695C14.835 70.206 14.918 70.33 15.0226 70.4345C15.1272 70.5389 15.2514 70.6217 15.388 70.6782C15.5246 70.7347 15.671 70.7637 15.8188 70.7636C15.9666 70.7635 16.113 70.7343 16.2495 70.6776C16.386 70.6209 16.5101 70.5379 16.6145 70.4333L17.4088 69.6391L29.3405 57.7051C29.5514 57.4941 29.6699 57.208 29.6699 56.9097C29.6699 56.6114 29.5514 56.3253 29.3405 56.1143L28.544 55.3178L30.1865 53.6753L31.2328 52.6291L35.3458 53.9993C35.5443 54.0639 35.7568 54.0727 35.9599 54.0247C36.1631 53.9767 36.3492 53.8737 36.4978 53.7271L37.2943 54.5236C37.7943 55.007 38.4283 55.3287 39.1138 55.4467C39.7993 55.5647 40.5044 55.4735 41.1373 55.1851L42.863 56.9108L42.0688 57.7051C41.8579 57.916 41.7394 58.2021 41.7394 58.5005C41.7394 58.7988 41.8579 59.0849 42.0688 59.2958L54.0005 71.2298L54.7948 72.0241C54.899 72.1294 55.023 72.213 55.1597 72.2701C55.2964 72.3271 55.4431 72.3565 55.5913 72.3565C55.7394 72.3565 55.8861 72.3271 56.0228 72.2701C56.1595 72.213 56.2836 72.1294 56.3878 72.0241C56.5987 71.8131 56.7172 71.527 56.7172 71.2287C56.7172 70.9304 56.5987 70.6443 56.3878 70.4333L50.819 64.8623L63.5473 52.1363L69.116 57.7051C69.3282 57.91 69.6124 58.0234 69.9073 58.0208C70.2023 58.0183 70.4845 57.9 70.6931 57.6914C70.9016 57.4828 71.02 57.2006 71.0225 56.9057C71.0251 56.6107 70.9117 56.3265 70.7068 56.1143L69.9103 55.3178L57.9785 43.3838C57.7637 43.1803 57.479 43.0669 57.1831 43.0669C56.8872 43.0669 56.6026 43.1803 56.3878 43.3838L55.5913 44.1803L53.204 41.7931L52.9025 41.4916L54.2728 37.3786C54.3388 37.1807 54.3485 36.9685 54.3008 36.7654C54.2531 36.5624 54.1499 36.3766 54.0028 36.2288L54.7993 35.4323C55.8343 34.3951 56.0548 32.8471 55.4563 31.5916L57.1843 29.8636L57.9808 30.6601C58.0853 30.7648 58.2094 30.848 58.3461 30.9047C58.4828 30.9614 58.6293 30.9906 58.7773 30.9906C58.9252 30.9906 59.0718 30.9614 59.2084 30.9047C59.3451 30.848 59.4693 30.7648 59.5738 30.6601L71.5055 18.7261L72.302 17.9296C72.4065 17.8248 72.4893 17.7005 72.5457 17.5638C72.6021 17.4271 72.631 17.2805 72.6308 17.1326C72.6306 16.9847 72.6013 16.8383 72.5445 16.7017C72.4877 16.5651 72.4045 16.441 72.2998 16.3366C72.195 16.2321 72.0707 16.1493 71.934 16.0929C71.7972 16.0365 71.6507 16.0076 71.5028 16.0078C71.3549 16.008 71.2084 16.0373 71.0719 16.0941C70.9353 16.1509 70.8112 16.2341 70.7068 16.3388ZM11.0435 21.9076L23.7718 9.17933L28.544 13.9516L27.7498 14.7458L22.181 20.3168L15.818 26.6821L11.0435 21.9076ZM18.9995 26.6821L23.7718 21.9076L28.544 17.1331L30.9313 19.5181C31.1465 19.7217 31.4315 19.8352 31.7278 19.8352C32.0241 19.8352 32.3091 19.7217 32.5243 19.5181C32.7386 19.3136 33.0234 19.1994 33.3196 19.1994C33.6159 19.1994 33.9007 19.3136 34.115 19.5181L34.9115 20.3146L32.5243 22.7018L21.5758 33.6503L22.4533 31.0156C22.5194 30.8172 22.529 30.6044 22.4809 30.4009C22.4328 30.1974 22.329 30.0113 22.181 29.8636L20.642 28.3246L18.9995 26.6821ZM22.181 61.6831L9.45277 48.9548L14.2273 44.1803L20.5903 50.5456L26.159 56.1143L26.9533 56.9086L22.181 61.6831ZM35.3998 51.6458L31.2868 50.2756C31.0884 50.2094 30.8756 50.1998 30.6721 50.2479C30.4686 50.296 30.2825 50.3999 30.1348 50.5478L29.3383 51.3443L28.5958 52.0868L26.9533 53.7293L22.181 48.9548L17.4088 44.1803L19.796 41.7931C20.2348 41.3543 20.2348 40.6411 19.796 40.2023C19.3573 39.7636 19.3573 39.0503 19.796 38.6116L34.1173 24.2926C34.3316 24.0881 34.6164 23.9739 34.9126 23.9739C35.2089 23.9739 35.4937 24.0881 35.708 24.2926C35.9185 24.5042 36.0367 24.7906 36.0367 25.0891C36.0367 25.3876 35.9185 25.6739 35.708 25.8856L32.5265 29.0671C32.3216 29.2793 32.2082 29.5634 32.2108 29.8584C32.2133 30.1534 32.3316 30.4355 32.5402 30.6441C32.7488 30.8527 33.031 30.971 33.3259 30.9736C33.6209 30.9762 33.9051 30.8628 34.1173 30.6578L37.2988 27.4763C37.5137 27.2722 37.7988 27.1583 38.0953 27.1583C38.3917 27.1583 38.6768 27.2722 38.8918 27.4763C38.9965 27.5806 39.0795 27.7046 39.1362 27.8411C39.1929 27.9776 39.2221 28.1239 39.2221 28.2717C39.2221 28.4195 39.1929 28.5658 39.1362 28.7023C39.0795 28.8388 38.9965 28.9628 38.8918 29.0671L35.7103 32.2486C35.4993 32.4598 35.3809 32.7462 35.3811 33.0448C35.3814 33.3433 35.5001 33.6295 35.7114 33.8405C35.9226 34.0514 36.209 34.1698 36.5076 34.1696C36.8061 34.1694 37.0923 34.0506 37.3033 33.8393L40.4848 30.6578C40.6969 30.4529 40.9811 30.3395 41.2761 30.3421C41.5711 30.3446 41.8532 30.463 42.0618 30.6715C42.2704 30.8801 42.3887 31.1623 42.3913 31.4573C42.3938 31.7522 42.2804 32.0364 42.0755 32.2486L38.8918 35.4301C38.6808 35.6413 38.5624 35.9277 38.5626 36.2262C38.5629 36.5248 38.6816 36.811 38.8929 37.022C39.1041 37.2329 39.3905 37.3513 39.6891 37.3511C39.9876 37.3509 40.2738 37.2321 40.4848 37.0208L43.6685 33.8393C43.8828 33.6348 44.1677 33.5207 44.4639 33.5207C44.7601 33.5207 45.045 33.6348 45.2593 33.8393C45.4702 34.0503 45.5887 34.3364 45.5887 34.6347C45.5887 34.933 45.4702 35.2191 45.2593 35.4301L38.5903 42.0991L38.5813 42.1081L34.2365 46.4528C34.0316 46.665 33.9182 46.9492 33.9208 47.2442C33.9233 47.5391 34.0416 47.8213 34.2502 48.0299C34.4588 48.2385 34.741 48.3568 35.0359 48.3593C35.3309 48.3619 35.6151 48.2485 35.8273 48.0436L36.5023 47.3686L36.509 47.3641L40.1788 43.6943C40.6343 43.2407 41.2335 42.9598 41.8736 42.8998C42.5137 42.8399 43.1547 43.0046 43.6865 43.3658L35.3998 51.6458ZM61.9565 50.5456L49.2283 63.2738L44.456 58.5016L45.2503 57.7073L50.819 52.1386L57.182 45.7733L61.9565 50.5456ZM54.0005 45.7711L49.2283 50.5456L44.456 55.3201L42.0688 52.9351C41.8533 52.7319 41.5684 52.6188 41.2723 52.6188C40.9761 52.6188 40.6912 52.7319 40.4758 52.9351C40.2615 53.1396 39.9766 53.2537 39.6804 53.2537C39.3842 53.2537 39.0993 53.1396 38.885 52.9351L38.0885 52.1386L46.0963 44.1286C46.2242 43.9955 46.3164 43.8322 46.364 43.6538C46.5426 43.6066 46.706 43.5145 46.8388 43.3861L51.4243 38.8028L50.5445 41.4398C50.4784 41.6382 50.4688 41.851 50.5169 42.0545C50.565 42.258 50.6688 42.4441 50.8168 42.5918L52.3558 44.1308L54.0005 45.7711ZM55.5913 28.2728L53.204 30.6601C52.7653 31.0988 52.7653 31.8121 53.204 32.2508C53.6428 32.6896 53.6428 33.4028 53.204 33.8416L45.2638 41.7796C44.642 41.2673 43.9056 40.9129 43.1173 40.7468L46.841 37.0231C47.4732 36.3899 47.8282 35.5317 47.8282 34.637C47.8282 33.7422 47.4732 32.884 46.841 32.2508C46.2419 31.6766 45.4499 31.3468 44.6203 31.3261C44.597 30.4794 44.2537 29.673 43.6595 29.0693C43.0673 28.4876 42.2796 28.1474 41.45 28.1153C41.4169 27.2772 41.07 26.4821 40.478 25.8878C39.8789 25.3136 39.0869 24.9838 38.2573 24.9631C38.2347 24.1151 37.8904 23.3075 37.2943 22.7041C37.0132 22.4386 36.6861 22.2267 36.329 22.0786L37.598 20.8096L41.711 22.1798C41.9094 22.246 42.1222 22.2556 42.3257 22.2075C42.5292 22.1594 42.7153 22.0555 42.863 21.9076L43.6595 21.1111L44.402 20.3686L46.0445 18.7261L50.8168 23.5006L55.5913 28.2728ZM58.7728 28.2728L52.4098 21.9076L46.841 16.3388L46.0468 15.5446L50.819 10.7723L63.5473 23.5006L58.7728 28.2728Z" fill="#FB8D48"/>
<path d="M59.5701 24.2955C60.0094 23.8561 60.0094 23.1438 59.5701 22.7045C59.1307 22.2651 58.4184 22.2651 57.9791 22.7045C57.5397 23.1438 57.5398 23.8561 57.9791 24.2955C58.4185 24.7348 59.1308 24.7348 59.5701 24.2955Z" fill="#E86B31"/>
<path d="M15.0193 49.7486C15.4586 49.3092 15.4586 48.5969 15.0193 48.1576C14.5799 47.7183 13.8676 47.7183 13.4283 48.1576C12.989 48.597 12.989 49.3093 13.4283 49.7486C13.8677 50.1879 14.58 50.1879 15.0193 49.7486Z" fill="#E86B31"/>
<path d="M50.0213 59.2955C50.4606 58.8561 50.4606 58.1438 50.0212 57.7045C49.5819 57.2651 48.8696 57.2651 48.4302 57.7045C47.9909 58.1438 47.9909 58.8561 48.4303 59.2955C48.8696 59.7348 49.5819 59.7348 50.0213 59.2955Z" fill="#E86B31"/>
<path d="M24.5681 14.7486C25.0075 14.3092 25.0075 13.5969 24.5681 13.1576C24.1288 12.7183 23.4165 12.7183 22.9771 13.1576C22.5378 13.597 22.5378 14.3093 22.9771 14.7486C23.4165 15.1879 24.1288 15.1879 24.5681 14.7486Z" fill="#E86B31"/>
</g>
<path d="M36.5 72.2266C55.2777 72.2266 70.5 57.0042 70.5 38.2266C70.5 19.4489 55.2777 4.22656 36.5 4.22656C17.7223 4.22656 2.5 19.4489 2.5 38.2266C2.5 57.0042 17.7223 72.2266 36.5 72.2266Z" fill="url(#paint0_linear_998_275824)"/>
<defs>
<linearGradient id="paint0_linear_998_275824" x1="36.5" y1="4.22656" x2="36.5" y2="72.2266" gradientUnits="userSpaceOnUse">
<stop stop-color="#FFBE55" stop-opacity="0"/>
<stop offset="1" stop-color="#E86B31" stop-opacity="0.28"/>
</linearGradient>
<clipPath id="clip0_998_275824">
<rect width="72" height="72" fill="white" transform="translate(0.5 0.226562)"/>
</clipPath>
</defs>
</svg>
