<svg width="73" height="73" viewBox="0 0 73 73" fill="none" xmlns="http://www.w3.org/2000/svg">
<mask id="mask0_998_275798" style="mask-type:luminance" maskUnits="userSpaceOnUse" x="0" y="0" width="73" height="73">
<path d="M72.465 0.261719H0.535156V72.1915H72.465V0.261719Z" fill="white"/>
</mask>
<g mask="url(#mask0_998_275798)">
<path d="M72.465 32.1439V40.3091C72.465 42.3771 70.7825 44.0592 68.7148 44.0592H63.1977C62.6369 45.9708 61.8714 47.8164 60.9143 49.5636L64.818 53.4671C66.28 54.9292 66.28 57.3085 64.818 58.7707L59.0443 64.5445C59.0105 64.5782 58.9761 64.6114 58.9413 64.6435C58.7339 64.8364 58.4608 64.9436 58.1776 64.9432C57.9516 64.9433 57.7307 64.8753 57.5441 64.748C57.3574 64.6206 57.2134 64.4401 57.1308 64.2298C57.0484 64.0193 57.0311 63.789 57.0815 63.5687C57.1318 63.3485 57.2475 63.1485 57.4132 62.9949C57.4273 62.9818 57.4411 62.9686 57.4548 62.9549L63.2285 57.1811C63.8143 56.5954 63.8143 55.6422 63.2285 55.0566L58.7195 50.5476C58.5434 50.3713 58.4308 50.1417 58.3994 49.8946C58.3679 49.6474 58.4195 49.3968 58.546 49.1823C59.7484 47.1428 60.6599 44.9452 61.2539 42.6536C61.3163 42.4125 61.4571 42.199 61.6541 42.0465C61.851 41.894 62.093 41.8113 62.342 41.8113H68.7147C69.5429 41.8113 70.217 41.1373 70.217 40.3089V32.1437C70.217 31.3154 69.5429 30.6416 68.7147 30.6416H62.342C62.093 30.6416 61.851 30.5588 61.6541 30.4064C61.4573 30.254 61.3164 30.0405 61.254 29.7994C60.6597 27.5076 59.7482 25.3101 58.546 23.2703C58.4195 23.0558 58.3679 22.8052 58.3994 22.5581C58.4308 22.3109 58.5434 22.0813 58.7195 21.9051L63.2286 17.3963C63.8143 16.8105 63.8143 15.8573 63.2285 15.2716L57.4548 9.49795C57.173 9.21613 56.7959 9.06104 56.3924 9.06104C55.989 9.06104 55.6117 9.21613 55.33 9.49795L50.8212 14.0069C50.6449 14.183 50.4153 14.2957 50.1682 14.3271C49.921 14.3585 49.6704 14.3069 49.4559 14.1804C47.4164 12.978 45.2188 12.0666 42.9271 11.4725C42.686 11.4101 42.4725 11.2693 42.3201 11.0724C42.1676 10.8755 42.0848 10.6335 42.0848 10.3844V4.01191C42.0848 3.18358 41.411 2.50953 40.5827 2.50953H32.4173C31.589 2.50953 30.9151 3.18358 30.9151 4.01191V10.3846C30.9151 10.6336 30.8324 10.8755 30.6801 11.0724C30.5276 11.2693 30.3142 11.4101 30.0731 11.4725C27.7813 12.0668 25.5837 12.9783 23.5441 14.1806C23.3294 14.307 23.079 14.3585 22.8318 14.3271C22.5848 14.2957 22.3551 14.1831 22.1788 14.0071L17.6698 9.4981C17.3882 9.21628 17.0108 9.06118 16.6074 9.06118C16.2039 9.06118 15.8269 9.21628 15.5452 9.49795L9.77139 15.2717C9.18557 15.8574 9.18557 16.8106 9.77139 17.3966L14.2804 21.9053C14.4565 22.0815 14.5691 22.3111 14.6005 22.5582C14.632 22.8052 14.5804 23.0558 14.454 23.2703C13.2515 25.31 12.34 27.5076 11.746 29.7994C11.6835 30.0405 11.5428 30.254 11.3458 30.4065C11.1489 30.559 10.9069 30.6417 10.6579 30.6417H4.28535C3.45702 30.6417 2.78296 31.3156 2.78296 32.1439V40.3091C2.78296 41.1374 3.45702 41.8114 4.28535 41.8114H10.658C10.907 41.8114 11.149 41.8941 11.3459 42.0466C11.5428 42.199 11.6835 42.4125 11.746 42.6536C12.3403 44.9452 13.2517 47.1428 14.454 49.1825C14.5805 49.397 14.6321 49.6476 14.6007 49.8947C14.5692 50.1419 14.4566 50.3715 14.2805 50.5477L9.77154 55.0567C9.1857 55.6424 9.1857 56.5956 9.77154 57.1812L15.5453 62.955C15.5603 62.9701 15.5734 62.9828 15.5868 62.995C15.8008 63.1989 15.9261 63.4787 15.9353 63.774C15.9445 64.0695 15.8371 64.3567 15.6362 64.5735C15.4353 64.7901 15.1571 64.919 14.8619 64.9322C14.5666 64.9453 14.2781 64.8418 14.0587 64.6437C14.0229 64.6106 13.9879 64.5768 13.9536 64.5422L8.18206 58.7709C6.72 57.3087 6.72 54.9294 8.18206 53.4672L12.0856 49.5637C11.1287 47.8165 10.3632 45.971 9.80244 44.0594H4.28535C2.21764 44.0594 0.535156 42.3771 0.535156 40.3092V32.144C0.535156 30.0762 2.21764 28.3941 4.28535 28.3941H9.80244C10.3631 26.4823 11.1287 24.6369 12.0858 22.8897L8.18219 18.9862C6.72014 17.5239 6.72014 15.1446 8.18219 13.6824L13.956 7.90875C14.6622 7.20266 15.6039 6.81352 16.6077 6.81352C17.6114 6.81352 18.5533 7.20253 19.2595 7.90875L23.1631 11.8124C24.9103 10.8554 26.7559 10.0899 28.6675 9.52914V4.01191C28.6673 1.94406 30.3496 0.261719 32.4173 0.261719H40.5827C42.6505 0.261719 44.3326 1.94406 44.3326 4.01191V9.529C46.2444 10.0897 48.0898 10.8553 49.837 11.8124L53.7405 7.90875C54.4468 7.20253 55.3887 6.81352 56.3924 6.81352C57.3963 6.81352 58.338 7.20266 59.0442 7.9089L64.818 13.6824C66.28 15.1446 66.28 17.5239 64.818 18.9861L60.9143 22.8895C61.8713 24.6369 62.6368 26.4823 63.1975 28.3941H68.7147C70.7825 28.3939 72.465 30.0762 72.465 32.1439ZM50.1853 47.9469C50.3799 48.0942 50.6173 48.1739 50.8614 48.1736C51.0355 48.1739 51.2073 48.1336 51.3631 48.0561C51.519 47.9785 51.6547 47.8657 51.7594 47.7266C54.2761 44.3921 55.6065 40.4152 55.6065 36.2266C55.6065 25.6914 47.0353 17.1202 36.5001 17.1202C25.9648 17.1202 17.3936 25.6914 17.3936 36.2266C17.3936 40.4152 18.7241 44.3921 21.2407 47.7266C21.4203 47.9646 21.687 48.1215 21.9822 48.1627C22.2774 48.204 22.5769 48.1263 22.8148 47.9467C23.0528 47.7671 23.2096 47.5003 23.2509 47.2051C23.2922 46.9099 23.2145 46.6104 23.0348 46.3725C20.8148 43.431 19.6414 39.9225 19.6414 36.2265C19.6414 26.9306 27.2041 19.3679 36.5001 19.3679C45.796 19.3679 53.3587 26.9307 53.3587 36.2266C53.3587 39.9227 52.1852 43.4311 49.9653 46.3726C49.7858 46.6106 49.7081 46.9101 49.7493 47.2053C49.7905 47.5005 49.9473 47.7672 50.1853 47.9469ZM52.4482 51.5619C54.494 53.7876 55.6206 56.6688 55.6206 59.6745V71.0677C55.6206 71.3656 55.5022 71.6516 55.2915 71.8624C55.0807 72.0731 54.7948 72.1915 54.4968 72.1915H18.5034C18.2053 72.1915 17.9194 72.0731 17.7087 71.8624C17.4979 71.6516 17.3795 71.3656 17.3795 71.0677V59.6745C17.3795 56.6687 18.5062 53.7876 20.5519 51.5619C22.5845 49.3507 25.3363 47.9843 28.3005 47.715C28.8031 47.6681 29.277 47.9662 29.4547 48.44L31.4995 53.8996L33.0211 57.8945L33.8177 53.6745L31.4595 49.3253C31.3666 49.1541 31.3198 48.9618 31.3237 48.767C31.3276 48.5724 31.3821 48.3819 31.4817 48.2146C31.5814 48.0473 31.7228 47.9088 31.8921 47.8125C32.0614 47.7163 32.2528 47.6656 32.4475 47.6658H40.5525C40.7472 47.6656 40.9386 47.7163 41.1079 47.8125C41.2772 47.9088 41.4186 48.0473 41.5183 48.2146C41.6179 48.3819 41.6724 48.5724 41.6763 48.767C41.6802 48.9618 41.6334 49.1541 41.5405 49.3253L39.1823 53.6745L39.9789 57.8945L41.5026 53.8936L43.5452 48.4399C43.6315 48.2094 43.7913 48.0135 43.9998 47.8826C44.2084 47.7515 44.4541 47.6927 44.6993 47.7148C47.6639 47.9843 50.4156 49.3507 52.4482 51.5619ZM35.205 69.9437L29.3967 54.6939L27.6639 50.0675C23.0948 50.895 19.6273 54.9608 19.6273 59.6745V69.9437H35.205ZM36.5001 67.0284L38.4495 61.9103L36.8994 53.6988C36.8515 53.4448 36.8927 53.1819 37.0158 52.9546L38.6647 49.9137H34.3354L35.9843 52.9546C36.1075 53.1819 36.1486 53.4448 36.1007 53.6988L34.5506 61.9103L36.5001 67.0284ZM53.3728 59.6745C53.3728 54.9608 49.9053 50.895 45.3362 50.0675L43.6059 54.688L37.7951 69.9437H53.3728V59.6745ZM36.5001 26.0159C42.2112 26.0159 46.8577 30.6623 46.8577 36.3737C46.8577 42.0852 42.2112 46.7314 36.5001 46.7314C30.7888 46.7314 26.1423 42.085 26.1423 36.3735C26.1423 30.6621 30.7888 26.0159 36.5001 26.0159ZM36.5001 28.2637C32.0283 28.2637 28.3901 31.9018 28.3901 36.3737C28.3901 40.8455 32.0283 44.4836 36.5001 44.4836C40.9718 44.4836 44.6099 40.8454 44.6099 36.3735C44.6099 31.9018 40.9718 28.2637 36.5001 28.2637Z" fill="#FB8D48"/>
</g>
<path d="M34.807 71.8758C53.4781 71.8758 68.614 56.7398 68.614 38.0687C68.614 19.3976 53.4781 4.26172 34.807 4.26172C16.1359 4.26172 1 19.3976 1 38.0687C1 56.7398 16.1359 71.8758 34.807 71.8758Z" fill="url(#paint0_linear_998_275798)"/>
<defs>
<linearGradient id="paint0_linear_998_275798" x1="34.807" y1="4.26172" x2="34.807" y2="71.8758" gradientUnits="userSpaceOnUse">
<stop stop-color="#FFBE55" stop-opacity="0"/>
<stop offset="1" stop-color="#E86B31" stop-opacity="0.28"/>
</linearGradient>
</defs>
</svg>
