<svg width="72" height="73" viewBox="0 0 72 73" fill="none" xmlns="http://www.w3.org/2000/svg">
<mask id="mask0_998_275811" style="mask-type:luminance" maskUnits="userSpaceOnUse" x="0" y="0" width="72" height="73">
<path d="M72 0.226562H0V72.2266H72V0.226562Z" fill="white"/>
</mask>
<g mask="url(#mask0_998_275811)">
<path d="M10.7987 13.5765L13.1019 18.3376L18.3267 19.0486C19.3624 19.1877 19.7335 20.4708 19.0224 21.151L15.2042 24.8145L16.1472 30.0085C16.3326 31.0287 15.2506 31.8016 14.354 31.3069L9.70115 28.8028L5.04827 31.3069C4.15169 31.7861 3.02325 31.0441 3.27059 29.9311L4.19806 24.7991L0.379916 21.1355C-0.362072 20.4244 0.039838 19.1569 1.09099 19.0178L6.30036 18.3067L8.60363 13.5456C9.03645 12.6336 10.3658 12.649 10.7987 13.5765ZM11.1697 20.0071L9.70115 16.9464L8.21717 20.0071C8.04712 20.3626 7.69159 20.6408 7.27423 20.7028L3.91982 21.151L6.37766 23.5007C6.6559 23.7789 6.81048 24.1808 6.7332 24.5981L6.13033 27.937L9.09828 26.345C9.45382 26.1593 9.9021 26.1285 10.2731 26.345L13.2565 27.9526L12.6691 24.6754C12.5764 24.2735 12.6846 23.8253 13.0092 23.5007L15.467 21.151L12.1435 20.7028C11.7416 20.6564 11.3552 20.3936 11.1697 20.0071ZM37.1084 2.36939L39.4116 7.13048L44.652 7.84155C45.6876 7.98068 46.0585 9.2637 45.3475 9.95932L41.5293 13.6229L42.4724 18.8168C42.6578 19.837 41.5757 20.6099 40.6791 20.1152L35.9954 17.6111L31.3425 20.1152C30.4459 20.5945 29.3175 19.8524 29.5648 18.7395L30.4923 13.6074L26.6587 9.94386C25.9167 9.23278 26.3186 7.96522 27.3698 7.8261L32.5791 7.11503L34.8824 2.36939C35.3461 1.42645 36.6601 1.44191 37.1084 2.36939ZM37.4793 8.79996L35.9954 5.73925L34.5269 8.79996C34.3568 9.15549 34.0013 9.43375 33.584 9.49558L30.2141 9.94386L32.6719 12.2935C32.9656 12.5717 33.1047 12.9736 33.0274 13.391L32.4245 16.7299L35.408 15.1377C35.7636 14.9523 36.1963 14.9213 36.5828 15.1377L39.5662 16.7455L38.9788 13.4683C38.886 13.0664 38.9942 12.6181 39.3189 12.2935L41.7767 9.94386L38.4532 9.48011C38.0359 9.4492 37.6648 9.18641 37.4793 8.79996ZM63.4026 13.5765L65.7058 18.3376L70.9307 19.0486C71.9663 19.1877 72.3528 20.4708 71.6263 21.151L67.8082 24.8145L68.7511 30.0085C68.9365 31.0287 67.8545 31.8016 66.958 31.3069L62.3051 28.8028L57.6521 31.3069C56.7556 31.7861 55.6272 31.0441 55.859 29.9311L56.7865 24.7991L52.9684 21.1355C52.2264 20.4244 52.6283 19.1569 53.6795 19.0178L58.8888 18.3067L61.1921 13.5456C61.6404 12.6336 62.9698 12.649 63.4026 13.5765ZM63.7736 20.0071L62.3051 16.9464L60.8211 20.0071C60.6511 20.3626 60.3109 20.6408 59.8781 20.7028L56.5238 21.151L58.9661 23.5007C59.2443 23.7789 59.3988 24.1808 59.3217 24.5981L58.7187 27.937L61.7021 26.345C62.0577 26.1593 62.5059 26.1285 62.877 26.345L65.8758 27.9526L65.2885 24.6754C65.1957 24.2735 65.3039 23.8253 65.6286 23.5007L68.071 21.151L64.7474 20.7028C64.3455 20.6564 63.959 20.3936 63.7736 20.0071ZM30.2605 45.142C29.9203 44.5545 30.1213 43.797 30.7087 43.4571C31.2961 43.1169 32.0535 43.3178 32.3937 43.9053L34.0167 46.7187L39.7826 40.9528C40.2618 40.4737 41.0502 40.4737 41.5293 40.9528C42.0085 41.432 42.0085 42.2204 41.5293 42.6996L34.6196 49.6093C34.0476 50.1813 33.0892 50.0576 32.6873 49.3619L30.2605 45.142ZM35.9954 32.0799C42.7196 32.0799 48.1764 37.5365 48.1764 44.2609C48.1764 50.9851 42.7196 56.4418 35.9954 56.4418C29.271 56.4418 23.8144 50.9851 23.8144 44.2609C23.8144 37.5365 29.271 32.0799 35.9954 32.0799ZM42.8587 37.3974C39.0715 33.6102 32.9193 33.6102 29.1319 37.3974C25.3447 41.1847 25.3447 47.337 29.1319 51.1242C32.9193 54.9114 39.0715 54.9114 42.8587 51.1242C46.6459 47.3216 46.6459 41.1847 42.8587 37.3974ZM35.9954 24.428C46.9397 24.428 55.8127 33.301 55.8127 44.2453C55.8127 48.3882 54.545 52.2372 52.3655 55.4216L58.2859 65.6702C58.8578 66.6287 58.0696 67.7107 57.0493 67.5562L50.9897 66.5977L47.7435 70.5859C47.1715 71.328 46.1049 71.2043 45.6876 70.4622L41.5449 63.2897C37.9276 64.3409 34.0476 64.3409 30.4459 63.2897L26.3032 70.4622C25.8857 71.2043 24.8191 71.328 24.2472 70.5859L21.001 66.5977L14.9414 67.5562C13.9058 67.7262 13.1792 66.5977 13.6739 65.7167L19.6252 55.4216C14.2458 47.5534 15.2506 36.9647 21.9904 30.2249C25.5612 26.654 30.5232 24.428 35.9954 24.428ZM50.7269 57.5084C48.8411 59.6107 46.5224 61.2956 43.8945 62.4396L46.9243 67.6799L49.5212 64.4955C49.8149 64.1245 50.2632 63.9854 50.6961 64.0626L54.8698 64.7273L50.7269 57.5084ZM28.0809 62.4396C25.4684 61.2956 23.1497 59.6107 21.2638 57.5238L17.1056 64.7273L21.2793 64.0626C21.6966 63.9854 22.1603 64.1399 22.4541 64.4955L25.051 67.6799L28.0809 62.4396ZM48.2691 31.9872C41.4985 25.2164 30.5077 25.2164 23.7371 31.9872C16.9665 38.7578 16.9665 49.7484 23.7371 56.5192C30.5233 63.2897 41.4985 63.2897 48.2691 56.5192C55.0397 49.7484 55.0397 38.7578 48.2691 31.9872Z" fill="#FB8D48"/>
</g>
<path d="M35.84 71.9066C54.5293 71.9066 69.68 56.7559 69.68 38.0666C69.68 19.3772 54.5293 4.22656 35.84 4.22656C17.1507 4.22656 2 19.3772 2 38.0666C2 56.7559 17.1507 71.9066 35.84 71.9066Z" fill="url(#paint0_linear_998_275811)"/>
<defs>
<linearGradient id="paint0_linear_998_275811" x1="35.84" y1="4.22656" x2="35.84" y2="71.9066" gradientUnits="userSpaceOnUse">
<stop stop-color="#EEA07B" stop-opacity="0"/>
<stop offset="1" stop-color="#E86B31" stop-opacity="0.28"/>
</linearGradient>
</defs>
</svg>
